<?xml version="1.0" encoding="UTF-8"?>
<svg version="1.1" xmlns="http://www.w3.org/2000/svg" width="512" height="512">
<path d="M0 0 C101.64 0 203.28 0 308 0 C308 8.25 308 16.5 308 25 C311.60989868 24.97643433 311.60989868 24.97643433 315.29272461 24.95239258 C323.26742783 24.9025577 331.24213815 24.86949562 339.21695614 24.84456348 C344.04942539 24.82894519 348.88173432 24.80777736 353.71411133 24.77368164 C358.38254421 24.7409509 363.05082343 24.72311816 367.71936226 24.71536827 C369.49545267 24.7098493 371.27153521 24.69907233 373.04755974 24.68280983 C395.06835027 24.48929455 395.06835027 24.48929455 404 32 C408.59663018 38.15375422 410.1492596 43.06570837 410.17700195 50.73413086 C410.18685875 51.91554909 410.18685875 51.91554909 410.19691467 53.12083435 C410.21666313 55.73550523 410.22832532 58.35011808 410.23828125 60.96484375 C410.24235678 61.86386477 410.2464323 62.76288578 410.25063133 63.68914986 C410.27151724 68.46488337 410.2857975 73.2405881 410.29516602 78.01635742 C410.30612309 82.89647905 410.34038884 87.77613103 410.38033772 92.65608883 C410.40681223 96.44939371 410.41488566 100.24259306 410.41844749 104.03598213 C410.4232493 105.83089871 410.43467401 107.62581271 410.45348549 109.42063713 C410.610753 125.44638697 408.96318547 141.72538295 402.625 156.625 C402.32392334 157.36242432 402.02284668 158.09984863 401.71264648 158.85961914 C399.31487318 164.58486306 396.54035814 169.89101783 393 175 C392.12601562 176.29744141 392.12601562 176.29744141 391.234375 177.62109375 C373.16345963 203.51539321 347.4193449 220.8431901 316.5390625 227.40625 C313.59007923 227.90100216 310.97550115 228.13786106 308 228 C308.03480469 228.92296875 308.06960938 229.8459375 308.10546875 230.796875 C308.95931017 271.94389977 292.12699277 310.41653762 263.96484375 339.96875 C249.94021867 354.42136717 233.25228643 365.87425481 214.6875 373.6875 C213.76650513 374.07941528 213.76650513 374.07941528 212.8269043 374.47924805 C205.09857991 377.59605686 197.00157071 379.70901312 189 382 C190.61660188 386.99497934 192.23407777 391.98967458 193.85229492 396.98413086 C194.4003751 398.67611411 194.94823406 400.36816904 195.49584961 402.06030273 C198.94709349 412.7240453 202.43833397 423.37259874 206 434 C207.16938614 434.00213753 207.16938614 434.00213753 208.36239624 434.00431824 C215.74711929 434.02222552 223.13115185 434.06406541 230.51556969 434.13209057 C234.311077 434.16622939 238.10618743 434.19144989 241.90185547 434.19555664 C245.57215437 434.19986812 249.24156 434.22856236 252.91157913 434.27343178 C254.3043864 434.28631675 255.69730107 434.29074671 257.09016037 434.28615379 C266.49035539 434.26239956 274.67313108 435.00864071 281.80340576 441.68981934 C285.23162275 445.53533543 286.88010772 450.01918963 288.6484375 454.80078125 C288.90178864 455.48564606 289.15513977 456.17051086 289.41616821 456.87612915 C292.81536852 466.12868366 296.05351617 475.43958224 299.28857422 484.75048828 C300.39050661 487.91959633 301.49787233 491.08677394 302.60546875 494.25390625 C303.30761804 496.27071974 304.00945309 498.28764266 304.7109375 500.3046875 C305.04209564 501.25036591 305.37325378 502.19604431 305.71444702 503.17037964 C306.0154129 504.0395401 306.31637878 504.90870056 306.62646484 505.80419922 C306.8926059 506.56868378 307.15874695 507.33316833 307.43295288 508.12081909 C308 510 308 510 308 512 C206.36 512 104.72 512 0 512 C3.37799859 499.61400515 3.37799859 499.61400515 4.8059082 495.41186523 C5.12666824 494.46395615 5.44742828 493.51604706 5.77790833 492.53941345 C6.11545639 491.55574295 6.45300446 490.57207245 6.80078125 489.55859375 C7.15963913 488.51026871 7.51849701 487.46194366 7.88822937 486.3818512 C8.64342771 484.18201106 9.40068211 481.98287577 10.15991211 479.78442383 C11.30941969 476.4464447 12.44285145 473.10326952 13.57617188 469.75976562 C14.31672074 467.60903469 15.05822549 465.45863261 15.80078125 463.30859375 C16.13225662 462.32289902 16.46373199 461.33720428 16.80525208 460.32164001 C19.60066389 452.32390369 23.03855333 442.90939727 30.6875 438.4375 C31.43386719 437.98246094 32.18023437 437.52742188 32.94921875 437.05859375 C36.81310155 435.06409425 39.92406461 434.85369656 44.21557617 434.79467773 C45.4966777 434.77473251 46.77777924 434.75478729 48.09770203 434.73423767 C49.49612304 434.7172546 50.89454531 434.70037575 52.29296875 434.68359375 C53.7235829 434.66301834 55.15419105 434.64202171 56.58479309 434.62062073 C60.34780006 434.56546067 64.11086135 434.51602471 67.8739624 434.46777344 C72.39030643 434.40867552 76.90655133 434.34248096 81.42281342 434.27747345 C88.281815 434.17954024 95.14088055 434.09063217 102 434 C107.61 417.17 113.22 400.34 119 383 C116.0709136 381.5354568 113.6507016 380.49581941 110.578125 379.5546875 C99.131546 375.95768578 88.44995391 371.91456782 78 366 C77.34193359 365.63036133 76.68386719 365.26072266 76.00585938 364.87988281 C65.27224602 358.75601935 56.03316243 351.40471929 47 343 C46.19691406 342.25621094 45.39382812 341.51242187 44.56640625 340.74609375 C18.73269562 315.81882911 1.1209522 277.7865526 -0.07275391 241.80712891 C-0.15434072 237.20189703 -0.10890708 232.60434912 0 228 C-0.55945313 227.97421875 -1.11890625 227.9484375 -1.6953125 227.921875 C-13.78950785 227.06633707 -25.03284129 222.97669387 -36 218 C-37.22589844 217.46632812 -37.22589844 217.46632812 -38.4765625 216.921875 C-64.53021407 204.87100033 -85.05923774 180.89645633 -95.37890625 154.46875 C-100.89984357 138.77939975 -102.47003088 123.84479679 -102.43359375 107.34375 C-102.43816874 105.50248017 -102.44347816 103.66121203 -102.44947815 101.81994629 C-102.45833405 97.99447608 -102.4560678 94.16921556 -102.44604492 90.34375 C-102.43448422 85.45715581 -102.45491288 80.57127672 -102.48396206 75.68477631 C-102.50234003 71.89623485 -102.50202978 68.10786502 -102.49632454 64.31929016 C-102.49617195 62.51726773 -102.50216431 60.7152332 -102.51461601 58.91325378 C-102.52957902 56.39679165 -102.51881611 53.88165638 -102.50170898 51.36523438 C-102.51137695 50.63367126 -102.52104492 49.90210815 -102.53100586 49.14837646 C-102.43556183 42.40640207 -99.99730087 37.3751686 -95.6875 32.25 C-88.51080462 26.24160386 -82.22840667 24.84158879 -72.99682617 24.88647461 C-72.20605682 24.88632858 -71.41528748 24.88618256 -70.60055542 24.8860321 C-67.99799821 24.88672638 -65.39551339 24.894496 -62.79296875 24.90234375 C-60.98407531 24.90420965 -59.17518136 24.90563274 -57.36628723 24.90663147 C-52.61356197 24.91044306 -47.86086744 24.92026175 -43.1081543 24.93133545 C-38.2550498 24.94157877 -33.40194032 24.94613535 -28.54882812 24.95117188 C-19.03253643 24.96188525 -9.51627558 24.97947105 0 25 C0 16.75 0 8.5 0 0 Z M-50 77 C-50.103125 84.095 -50.20625 91.19 -50.3125 98.5 C-50.35802002 100.70365234 -50.40354004 102.90730469 -50.45043945 105.17773438 C-50.69420322 125.50338028 -45.86434702 142.4830995 -31.50390625 157.62109375 C-22.4949193 166.18033408 -12.15662545 172.96084364 0 176 C0 143.33 0 110.66 0 77 C-16.5 77 -33 77 -50 77 Z M308 77 C308 109.67 308 142.34 308 176 C325.23539392 172.16991246 338.79142143 161.87898572 348.6875 147.25 C355.26949344 136.13176783 358.33585786 124.15909465 358.1953125 111.375 C358.19329834 110.4984375 358.19128418 109.621875 358.18920898 108.71875 C358.17883272 105.47911258 358.1509109 102.23955041 358.125 99 C358.08375 91.74 358.0425 84.48 358 77 C341.5 77 325 77 308 77 Z M153 105 C150.32382789 110.85013878 147.65538677 116.7037587 144.9921875 122.55981445 C144.08607015 124.54987469 143.17821269 126.5391436 142.26855469 128.52758789 C140.95825755 131.3926085 139.65432912 134.260455 138.3515625 137.12890625 C137.74364365 138.45276085 137.74364365 138.45276085 137.1234436 139.80335999 C136.55307877 141.06387428 136.55307877 141.06387428 135.97119141 142.34985352 C135.63809967 143.08043472 135.30500793 143.81101593 134.96182251 144.56373596 C133.75122424 147.63014063 132.90567959 150.83012142 132 154 C114.51 154 97.02 154 79 154 C80.47311037 156.94622075 81.77535089 159.21178533 83.6953125 161.80859375 C84.23881348 162.5456958 84.78231445 163.28279785 85.34228516 164.04223633 C86.224729 165.22789185 86.224729 165.22789185 87.125 166.4375 C87.73520996 167.26209717 88.34541992 168.08669434 88.97412109 168.9362793 C94.4666226 176.33526319 100.04949909 183.66520317 105.66845703 190.96850586 C106.91788674 192.59711966 108.15951516 194.23176154 109.39160156 195.87353516 C110.36081026 197.15492674 111.35167221 198.42088825 112.38183594 199.65380859 C114.65419168 202.54333537 115.00925741 203.87455141 114.73510742 207.58959961 C114.03464318 212.29078202 112.90185118 216.86251856 111.71484375 221.4609375 C111.49429825 222.33271637 111.27375275 223.20449524 111.04652405 224.10269165 C110.34803309 226.86129865 109.64320774 229.6182312 108.9375 232.375 C108.22908747 235.15339922 107.52206649 237.9321343 106.81776428 240.71157837 C106.38077207 242.43503662 105.94126545 244.15785966 105.49900818 245.87997437 C104.4037411 249.88870779 104.4037411 249.88870779 104 254 C108.47578944 252.64464346 112.35415491 250.85786934 116.4375 248.5859375 C117.03949219 248.25260406 117.64148438 247.91927063 118.26171875 247.57583618 C120.17713702 246.51359403 122.08854282 245.44435006 124 244.375 C125.25105577 243.68054566 126.50235624 242.98653196 127.75390625 242.29296875 C128.37225342 241.9492926 128.99060059 241.60561646 129.62768555 241.25152588 C130.87450006 240.55857567 132.12205843 239.86696217 133.37036133 239.17669678 C136.58435097 237.3893421 139.75295272 235.55342377 142.8828125 233.62207031 C143.82543945 233.05125229 143.82543945 233.05125229 144.78710938 232.46890259 C146.52492723 231.41240144 148.25114171 230.33688229 149.9765625 229.26025391 C153 228 153 228 155.52026367 228.59301758 C156.33857666 229.05732178 157.15688965 229.52162598 158 230 C159.42759644 230.72328491 159.42759644 230.72328491 160.8840332 231.46118164 C161.92906006 232.02184326 162.97408691 232.58250488 164.05078125 233.16015625 C164.90854912 233.61943008 164.90854912 233.61943008 165.78364563 234.08798218 C167.62807139 235.07676936 169.47031171 236.06955148 171.3125 237.0625 C172.57791226 237.74171096 173.84337467 238.42082849 175.10888672 239.09985352 C182.64820179 243.15269064 190.15655238 247.2562726 197.5559082 251.56079102 C200.58017332 253.42203782 200.58017332 253.42203782 204 254 C203.48504685 251.58195914 202.96398483 249.1655446 202.4375 246.75 C202.26839111 245.97237305 202.09928223 245.19474609 201.92504883 244.39355469 C200.76423981 239.16114665 199.49054431 233.96821267 198.140625 228.78125 C197.81908447 227.53762695 197.49754395 226.29400391 197.16625977 225.01269531 C196.52052086 222.53024882 195.86496024 220.05033372 195.19897461 217.57324219 C194.89999268 216.41985352 194.60101074 215.26646484 194.29296875 214.078125 C194.0199292 213.05106445 193.74688965 212.02400391 193.46557617 210.96582031 C192.82150001 206.86291671 193.07403734 203.5992503 195.17651367 199.96801758 C195.66869385 199.36626709 196.16087402 198.7645166 196.66796875 198.14453125 C197.22476318 197.44900146 197.78155762 196.75347168 198.35522461 196.03686523 C198.95987549 195.30282471 199.56452637 194.56878418 200.1875 193.8125 C201.4658117 192.21796303 202.74178024 190.62154529 204.015625 189.0234375 C204.67369141 188.20069336 205.33175781 187.37794922 206.00976562 186.53027344 C209.84024842 181.66041037 213.46765851 176.64083883 217.1159668 171.6340332 C217.65390869 170.89757568 218.19185059 170.16111816 218.74609375 169.40234375 C219.27058105 168.6841748 219.79506836 167.96600586 220.33544922 167.22607422 C222.71636197 164.04197882 225.20228069 160.94330654 227.69946289 157.84985352 C229.19171166 156.10419263 229.19171166 156.10419263 229 154 C211.51 154 194.02 154 176 154 C175.01 151.03 174.02 148.06 173 145 C172.36676408 143.42263391 171.70893162 141.85445202 171.00708008 140.30639648 C170.46685966 139.10617104 170.46685966 139.10617104 169.91572571 137.88169861 C169.53748154 137.05319901 169.15923737 136.2246994 168.76953125 135.37109375 C168.37424728 134.49598648 167.97896332 133.62087921 167.57170105 132.71925354 C166.32276427 129.95677696 165.067747 127.1971141 163.8125 124.4375 C162.95857891 122.55161583 162.10505944 120.66554976 161.25195312 118.77929688 C159.17260311 114.18408313 157.08779966 109.5913805 155 105 C154.34 105 153.68 105 153 105 Z " fill="#000000" transform="translate(102,0)"/>
</svg>
