<?xml version="1.0" encoding="UTF-8"?>
<svg version="1.1" xmlns="http://www.w3.org/2000/svg" width="512" height="512">
<path d="M0 0 C1.18191925 -0.00571014 2.3638385 -0.01142029 3.58157349 -0.01730347 C4.88498184 -0.01842133 6.1883902 -0.01953918 7.53129578 -0.02069092 C8.91262444 -0.02531833 10.29395182 -0.03034289 11.67527771 -0.03573608 C15.43363911 -0.04887036 19.19198263 -0.05530715 22.9503634 -0.05974674 C25.29789677 -0.0626761 27.64542525 -0.06678067 29.99295616 -0.07125092 C37.33618088 -0.08492918 44.67939441 -0.09459396 52.02263099 -0.09845281 C60.50223713 -0.10293311 68.98168204 -0.12047827 77.46123916 -0.1494534 C84.01332375 -0.17106573 90.56536298 -0.18115686 97.11748284 -0.18249393 C101.03174704 -0.18354238 104.94585974 -0.18945839 108.86008644 -0.20731354 C112.54303027 -0.22378633 116.22570862 -0.22595372 119.90867615 -0.21717453 C121.9032382 -0.21603637 123.8977914 -0.22976028 125.89230347 -0.243927 C127.08268219 -0.23835785 128.27306091 -0.2327887 129.49951172 -0.22705078 C130.5320876 -0.22851734 131.56466349 -0.2299839 132.62852955 -0.2314949 C137.12228726 0.36294718 140.55754585 2.68121933 143.44023132 6.14044189 C144.64645652 9.75911748 144.5484005 13.0655044 144.50273132 16.82794189 C144.4982196 17.52983643 144.49370789 18.23173096 144.48905945 18.95489502 C144.47730059 20.68344728 144.45936586 22.41195555 144.44023132 24.14044189 C145.74476257 24.09403564 147.04929382 24.04762939 148.39335632 23.99981689 C166.34148839 23.54948069 179.89921475 27.41279843 193.33866882 39.87872314 C206.01857141 53.52493801 208.222139 68.73390528 207.61943054 86.52130127 C206.74064408 99.36547173 198.67879162 111.55608017 189.44023132 120.14044189 C180.0268599 127.28162022 169.79336273 131.99255407 157.92070007 132.45684814 C156.38832703 132.51968994 156.38832703 132.51968994 154.82499695 132.58380127 C153.76989929 132.62311768 152.71480164 132.66243408 151.62773132 132.70294189 C150.55329773 132.74612549 149.47886414 132.78930908 148.37187195 132.83380127 C145.7281105 132.93955173 143.08426022 133.04164423 140.44023132 133.14044189 C140.16461365 133.75339111 139.88899597 134.36634033 139.60502625 134.99786377 C131.8774292 152.03649044 123.61391198 167.22728338 110.63163757 180.80841064 C108.39193352 183.11840703 108.39193352 183.11840703 106.42460632 185.73809814 C104.48296819 188.08870337 102.58356846 189.61254152 100.12773132 191.39044189 C98.01357542 193.13823502 98.01357542 193.13823502 96.44023132 195.14044189 C96.20616545 198.82697937 96.48787744 200.66942623 97.44023132 204.14044189 C97.77256228 205.47044883 98.10173033 206.80124828 98.42851257 208.13262939 C98.95727969 210.27910255 99.49413186 212.42084294 100.06620789 214.55621338 C100.95854595 217.91390045 101.44023132 220.63404207 101.44023132 224.14044189 C102.60941101 224.10563721 103.7785907 224.07083252 104.98320007 224.03497314 C106.53136274 224.00682473 108.079541 223.9795257 109.62773132 223.95294189 C110.3966571 223.92780518 111.16558289 223.90266846 111.95780945 223.87677002 C117.64531119 223.80354038 120.80292194 224.879891 125.19023132 228.64044189 C128.50923362 232.62324465 127.86206337 238.26593822 127.44023132 243.14044189 C125.62202108 247.78697918 122.7620515 249.77263941 118.44023132 252.14044189 C115.38864758 252.66212222 112.4114603 252.60895963 109.32304382 252.53106689 C108.56241638 252.52703857 107.80178894 252.52301025 107.01811218 252.51885986 C104.2002368 252.49806788 101.38270763 252.44222279 98.56523132 252.39044189 C92.25398132 252.30794189 85.94273132 252.22544189 79.44023132 252.14044189 C79.44023132 265.34044189 79.44023132 278.54044189 79.44023132 292.14044189 C111.78023132 291.81044189 144.12023132 291.48044189 177.44023132 291.14044189 C179.09023132 287.84044189 180.74023132 284.54044189 182.44023132 281.14044189 C188.74292561 272.28665706 197.93202998 266.73548455 208.44023132 264.14044189 C211.55875923 263.71430355 214.60756864 263.61489513 217.75273132 263.64044189 C218.58014832 263.64616211 219.40756531 263.65188232 220.26005554 263.65777588 C232.28877946 264.00604367 241.93445087 269.27818033 250.15116882 277.94512939 C258.79598426 288.52076655 260.66300588 299.74077608 259.6750946 312.99639893 C258.54995817 323.26765484 252.68905095 332.69052936 244.87382507 339.31622314 C240.77849571 342.26412789 237.16593695 344.25015964 232.44023132 346.14044189 C232.11023132 356.04044189 231.78023132 365.94044189 231.44023132 376.14044189 C235.06378601 376.10563721 238.6873407 376.07083252 242.42070007 376.03497314 C245.93216667 376.01157346 249.44362456 375.99335916 252.9551239 375.97564697 C255.39461661 375.96056535 257.83408223 375.9400972 260.27348328 375.91412354 C263.78095691 375.87771377 267.28807187 375.860709 270.79570007 375.84747314 C271.88545639 375.83198929 272.97521271 375.81650543 274.09799194 375.80055237 C280.57377203 375.79911473 284.18797804 376.35279622 289.19023132 380.64044189 C291.39895818 383.29091413 291.57435029 385.93882248 291.64555359 389.24468994 C291.66549881 390.06531418 291.68544403 390.88593842 291.70599365 391.73143005 C291.73106239 393.0534417 291.73106239 393.0534417 291.75663757 394.40216064 C291.77741867 395.30795364 291.79819977 396.21374664 291.8196106 397.14698792 C291.8849969 400.04056206 291.94394037 402.93422696 292.00273132 405.82794189 C292.04592692 407.78953982 292.08954155 409.75112857 292.1335907 411.71270752 C292.24066715 416.52185929 292.34196547 421.33110235 292.44023132 426.14044189 C293.11932556 426.47092529 293.7984198 426.80140869 294.49809265 427.14190674 C295.39294373 427.58228271 296.2877948 428.02265869 297.20976257 428.47637939 C298.09510681 428.90998779 298.98045105 429.34359619 299.8926239 429.79034424 C308.88642584 434.55658522 314.49220082 442.93604286 318.37773132 452.20294189 C321.88924288 464.38349761 320.09712417 477.6119902 314.11991882 488.55841064 C308.25297947 498.12825434 299.66832181 504.74681557 288.86210632 507.89044189 C277.47859807 510.40459096 265.7584921 509.21979509 255.43632507 503.46856689 C245.17392697 496.64035681 238.04040088 487.39421516 235.44023132 475.14044189 C234.55179348 460.44480601 235.9526659 449.68330774 245.15507507 437.65997314 C250.09902802 432.2089481 255.6561883 428.8540591 262.44023132 426.14044189 C262.77023132 418.88044189 263.10023132 411.62044189 263.44023132 404.14044189 C233.08023132 404.14044189 202.72023132 404.14044189 171.44023132 404.14044189 C171.77023132 411.40044189 172.10023132 418.66044189 172.44023132 426.14044189 C173.94585632 426.84169189 175.45148132 427.54294189 177.00273132 428.26544189 C187.44253214 433.55886203 193.82665077 441.34872161 198.37773132 452.20294189 C201.88924288 464.38349761 200.09712417 477.6119902 194.11991882 488.55841064 C188.25297947 498.12825434 179.66832181 504.74681557 168.86210632 507.89044189 C157.47859807 510.40459096 145.7584921 509.21979509 135.43632507 503.46856689 C125.17392697 496.64035681 118.04040088 487.39421516 115.44023132 475.14044189 C114.55179348 460.44480601 115.9526659 449.68330774 125.15507507 437.65997314 C130.09902802 432.2089481 135.6561883 428.8540591 142.44023132 426.14044189 C142.77023132 418.88044189 143.10023132 411.62044189 143.44023132 404.14044189 C91.96023132 404.14044189 40.48023132 404.14044189 -12.55976868 404.14044189 C-12.22976868 411.40044189 -11.89976868 418.66044189 -11.55976868 426.14044189 C-10.05414368 426.84169189 -8.54851868 427.54294189 -6.99726868 428.26544189 C3.44253214 433.55886203 9.82665077 441.34872161 14.37773132 452.20294189 C17.88924288 464.38349761 16.09712417 477.6119902 10.11991882 488.55841064 C4.25297947 498.12825434 -4.33167819 504.74681557 -15.13789368 507.89044189 C-26.52140193 510.40459096 -38.2415079 509.21979509 -48.56367493 503.46856689 C-58.82607303 496.64035681 -65.95959912 487.39421516 -68.55976868 475.14044189 C-69.44820652 460.44480601 -68.0473341 449.68330774 -58.84492493 437.65997314 C-53.90097198 432.2089481 -48.3438117 428.8540591 -41.55976868 426.14044189 C-41.22976868 418.88044189 -40.89976868 411.62044189 -40.55976868 404.14044189 C-70.91976868 404.14044189 -101.27976868 404.14044189 -132.55976868 404.14044189 C-132.22976868 411.40044189 -131.89976868 418.66044189 -131.55976868 426.14044189 C-130.05414368 426.84169189 -128.54851868 427.54294189 -126.99726868 428.26544189 C-116.55746786 433.55886203 -110.17334923 441.34872161 -105.62226868 452.20294189 C-102.11075712 464.38349761 -103.90287583 477.6119902 -109.88008118 488.55841064 C-115.74702053 498.12825434 -124.33167819 504.74681557 -135.13789368 507.89044189 C-146.52140193 510.40459096 -158.2415079 509.21979509 -168.56367493 503.46856689 C-178.82607303 496.64035681 -185.95959912 487.39421516 -188.55976868 475.14044189 C-189.44820652 460.44480601 -188.0473341 449.68330774 -178.84492493 437.65997314 C-173.94574709 432.25831553 -168.30082586 428.76838285 -161.55976868 426.14044189 C-161.56089661 424.90479492 -161.56202454 423.66914795 -161.56318665 422.39605713 C-161.55950228 417.79045239 -161.51659017 413.18588832 -161.46211243 408.58062744 C-161.44399801 406.59143802 -161.43637562 404.60212321 -161.43965149 402.612854 C-161.44252173 399.74476987 -161.40707229 396.87926166 -161.36445618 394.01153564 C-161.37355011 393.12896591 -161.38264404 392.24639618 -161.39201355 391.33708191 C-161.25826363 385.59309755 -160.03022257 382.584618 -156.03929138 378.4223175 C-153.22132318 375.98079721 -151.1946784 376.01813535 -147.5592804 376.0269165 C-145.99788834 376.0270298 -145.99788834 376.0270298 -144.404953 376.02714539 C-143.27783905 376.03230667 -142.1507251 376.03746796 -140.98945618 376.04278564 C-139.26240952 376.04490807 -139.26240952 376.04490807 -137.50047302 376.04707336 C-133.81187882 376.05268474 -130.12334463 376.0652392 -126.43476868 376.07794189 C-123.9386758 376.08295543 -121.44258198 376.08751859 -118.94648743 376.09161377 C-112.81753928 376.10180829 -106.68872141 376.12138157 -100.55976868 376.14044189 C-100.88976868 366.24044189 -101.21976868 356.34044189 -101.55976868 346.14044189 C-104.85976868 344.49044189 -108.15976868 342.84044189 -111.55976868 341.14044189 C-120.41355351 334.8377476 -125.96472602 325.64864324 -128.55976868 315.14044189 C-128.98590702 312.02191399 -129.08531544 308.97310458 -129.05976868 305.82794189 C-129.05404846 305.0005249 -129.04832825 304.17310791 -129.04243469 303.32061768 C-128.6941669 291.29189376 -123.42203025 281.64622234 -114.75508118 273.42950439 C-104.17944402 264.78468896 -92.95943449 262.91766734 -79.70381165 263.90557861 C-69.43255573 265.03071505 -60.00968121 270.89162227 -53.38398743 278.70684814 C-50.43608268 282.80217751 -48.45005093 286.41473626 -46.55976868 291.14044189 C1.95023132 291.63544189 1.95023132 291.63544189 51.44023132 292.14044189 C51.44023132 278.94044189 51.44023132 265.74044189 51.44023132 252.14044189 C38.83029518 252.25897837 38.83029518 252.25897837 26.2207489 252.41070557 C24.63375962 252.41947172 23.04676358 252.42711535 21.45976257 252.43341064 C20.64326233 252.44875854 19.82676208 252.46410645 18.98551941 252.47991943 C12.93529505 252.4826918 9.80547085 251.12212907 5.12773132 247.20294189 C2.44306901 242.33077695 2.46608038 237.56273793 3.44023132 232.14044189 C5.41233359 228.59907532 7.80108175 225.96001668 11.44023132 224.14044189 C12.81571289 224.05735552 14.19508928 224.03308174 15.57304382 224.04278564 C16.37870789 224.0460083 17.18437195 224.04923096 18.01445007 224.05255127 C18.85620789 224.06093018 19.6979657 224.06930908 20.56523132 224.07794189 C21.41472351 224.08245361 22.2642157 224.08696533 23.13945007 224.09161377 C25.23974041 224.10341315 27.33999463 224.12134883 29.44023132 224.14044189 C29.56269226 222.98930908 29.6851532 221.83817627 29.81132507 220.65216064 C30.44285423 215.59435833 31.7324896 210.78604554 33.06718445 205.87677002 C34.58200352 200.55529922 34.58200352 200.55529922 34.44023132 195.14044189 C32.27130193 192.62246242 32.27130193 192.62246242 29.37773132 190.32794189 C24.61483159 186.22345862 20.39018632 182.03290242 16.44023132 177.14044189 C15.67066101 176.20844971 14.9010907 175.27645752 14.10820007 174.31622314 C3.99336553 161.81321838 -3.02624921 147.76208031 -9.55976868 133.14044189 C-10.50275818 133.12642334 -10.50275818 133.12642334 -11.46479797 133.11212158 C-31.47833715 132.73868684 -47.21190243 130.54405016 -62.45820618 116.40216064 C-75.13810876 102.75594578 -77.34167636 87.54697851 -76.7389679 69.75958252 C-75.86018144 56.91541206 -67.79832897 44.72480362 -58.55976868 36.14044189 C-50.05372128 29.68757835 -39.71468097 23.9727822 -28.79414368 24.04278564 C-27.45996399 24.04761963 -27.45996399 24.04761963 -26.09883118 24.05255127 C-25.17844055 24.06093018 -24.25804993 24.06930908 -23.30976868 24.07794189 C-21.90597961 24.08470947 -21.90597961 24.08470947 -20.47383118 24.09161377 C-18.16907827 24.10337271 -15.86445641 24.11980764 -13.55976868 24.14044189 C-13.66418274 22.5297583 -13.66418274 22.5297583 -13.77070618 20.88653564 C-14.35730634 7.92814299 -14.35730634 7.92814299 -10.68476868 3.70294189 C-7.15715078 0.4394693 -4.77621926 0.01377451 0 0 Z M-40.55976868 60.14044189 C-46.70189607 67.21927717 -47.94133988 72.22741853 -47.82539368 81.62872314 C-47.19382055 89.97849139 -43.00958385 94.12164673 -36.87617493 99.47637939 C-29.76930689 104.58181916 -22.07049128 104.14044189 -13.55976868 104.14044189 C-13.55976868 86.98044189 -13.55976868 69.82044189 -13.55976868 52.14044189 C-24.53368989 52.14044189 -32.48568474 52.23925055 -40.55976868 60.14044189 Z M144.44023132 52.14044189 C144.44023132 69.30044189 144.44023132 86.46044189 144.44023132 104.14044189 C155.41415254 104.14044189 163.36614738 104.04163324 171.44023132 96.14044189 C177.58235871 89.06160662 178.82180253 84.05346526 178.70585632 74.65216064 C178.0742832 66.3023924 173.8900465 62.15923706 167.75663757 56.80450439 C160.64976954 51.69906463 152.95095392 52.14044189 144.44023132 52.14044189 Z M-46.55976868 320.14044189 C-48.53976868 323.77044189 -50.51976868 327.40044189 -52.55976868 331.14044189 C-57.13102313 338.32384175 -65.14134776 342.43123144 -72.55976868 346.14044189 C-72.55976868 356.04044189 -72.55976868 365.94044189 -72.55976868 376.14044189 C18.52023132 376.14044189 109.60023132 376.14044189 203.44023132 376.14044189 C203.44023132 366.24044189 203.44023132 356.34044189 203.44023132 346.14044189 C197.99523132 343.17044189 197.99523132 343.17044189 192.44023132 340.14044189 C185.25683147 335.56918744 181.14944178 327.55886281 177.44023132 320.14044189 C103.52023132 320.14044189 29.60023132 320.14044189 -46.55976868 320.14044189 Z " fill="#000000" transform="translate(190.5597686767578,1.85955810546875)"/>
</svg>
