<?xml version="1.0" encoding="UTF-8"?>
<svg version="1.1" xmlns="http://www.w3.org/2000/svg" width="512" height="512">
<path d="M0 0 C11.79400006 6.39146898 22.52861247 17.69956289 31 28 C31.7321875 28.84433594 32.464375 29.68867187 33.21875 30.55859375 C52.98093284 53.60405063 84 95.4357775 84 127 C84.96812622 127.16109253 84.96812622 127.16109253 85.95581055 127.32543945 C92.16467415 128.40122992 98.24461125 129.7604125 104.35107422 131.31005859 C117.60883725 134.67078651 130.91988603 137.42780825 144.375 139.875 C145.20359528 140.02593109 146.03219055 140.17686218 146.88589478 140.33236694 C149.26451562 140.76383633 151.64372124 141.19180368 154.0234375 141.6171875 C154.72650528 141.74292648 155.42957306 141.86866547 156.15394592 141.99821472 C160.42694128 142.75166614 164.70249167 143.40784292 169 144 C167.30863769 147.77798863 165.00120718 151.03840426 162.5 154.3125 C162.11585938 154.87517578 161.73171875 155.43785156 161.3359375 156.01757812 C160.09375 157.61328125 160.09375 157.61328125 157 160 C153.54955745 160.37621139 150.38285107 159.67763913 147 159 C145.90864746 158.81171631 144.81729492 158.62343262 143.69287109 158.42944336 C139.93203438 157.76750525 136.1842804 157.04876815 132.4375 156.3125 C131.76878876 156.18260681 131.10007751 156.05271362 130.41110229 155.91888428 C117.17791396 153.34275493 104.07103542 150.30271525 91 147 C91.13575439 147.72775635 91.27150879 148.4555127 91.41137695 149.20532227 C94.41863942 165.4226501 97.12052531 181.61168333 99 198 C99.13277344 199.09441406 99.26554688 200.18882812 99.40234375 201.31640625 C100.45812703 211.48374386 100.06220657 221.79812233 100 232 C110.89 232 121.78 232 133 232 C133 237.28 133 242.56 133 248 C122.11 248 111.22 248 100 248 C100.061875 251.0525 100.12375 254.105 100.1875 257.25 C100.36157142 283.49476799 95.56776398 309.44860314 90 335 C91.16233154 334.71801758 92.32466309 334.43603516 93.5222168 334.14550781 C97.94383533 333.074281 102.36707615 332.00988042 106.79077148 330.94726562 C108.68475672 330.49136829 110.57833042 330.03375703 112.47143555 329.57421875 C122.80297198 327.06760496 133.14235227 324.68809971 143.58203125 322.671875 C144.45534592 322.50133606 145.32866058 322.33079712 146.22843933 322.15509033 C154.5635507 320.58958046 154.5635507 320.58958046 158 321 C160.38671875 323.265625 160.38671875 323.265625 162.6875 326.25 C163.45449219 327.22453125 164.22148437 328.1990625 165.01171875 329.203125 C166.60273023 331.44116866 167.88814114 333.50277689 169 336 C163.9751878 337.51081106 158.95556613 338.66417458 153.796875 339.62890625 C152.1758962 339.9400014 150.55505214 340.25179929 148.93432617 340.56420898 C148.08857025 340.72670135 147.24281433 340.88919373 146.37142944 341.05661011 C131.52529839 343.92165294 116.81763663 347.11419955 102.1875 350.9375 C101.43343872 351.13449493 100.67937744 351.33148987 99.90246582 351.53445435 C91.90085235 353.59507093 91.90085235 353.59507093 84 356 C82.98330517 357.86647884 82.98330517 357.86647884 82.2734375 360.20703125 C81.96865479 361.09366455 81.66387207 361.98029785 81.34985352 362.89379883 C81.02815186 363.85697021 80.7064502 364.8201416 80.375 365.8125 C68.79458302 398.97693502 51.70175441 429.58853557 27.54296875 455.24609375 C25.75700572 457.18020118 24.06879867 459.10397969 22.40625 461.13671875 C16.57071671 468.08062443 8.1167608 475.9416196 0 480 C-7.16532905 480.57784912 -7.16532905 480.57784912 -10.4375 478.3125 C-12.22849814 475.66182276 -12.92366259 474.20617138 -13 471 C-11.35578277 465.30847881 -7.38480884 462.70978054 -2.8828125 459.2578125 C6.26547966 452.09288992 13.86985426 444.17116674 21 435 C21.65355469 434.21238281 22.30710937 433.42476563 22.98046875 432.61328125 C39.75785093 412.35316904 53.12705682 387.70729515 62 363 C34.74555007 371.70506547 8.4252295 381.951921 -17.70703125 393.625 C-18.600271 394.02396484 -19.49351074 394.42292969 -20.41381836 394.83398438 C-22.12747552 395.60661031 -23.83673647 396.38906759 -25.54125977 397.18164062 C-26.32944092 397.54451172 -27.11762207 397.90738281 -27.9296875 398.28125 C-28.61401855 398.60158203 -29.29834961 398.92191406 -30.00341797 399.25195312 C-33.57389952 400.58968307 -36.21559939 400.51313907 -40 400 C-42.5 398.5 -42.5 398.5 -44 396 C-44.54686219 393.22011721 -44.72991469 390.74791413 -44 388 C-41.22359865 384.81480091 -38.5238029 383.03895907 -34.71484375 381.2578125 C-33.64540527 380.75628662 -32.5759668 380.25476074 -31.47412109 379.73803711 C-30.30703613 379.20573486 -29.13995117 378.67343262 -27.9375 378.125 C-27.32964661 377.84576691 -26.72179321 377.56653381 -26.09552002 377.27883911 C50.85367542 342 50.85367542 342 70 342 C70.11029541 341.36618408 70.22059082 340.73236816 70.33422852 340.0793457 C71.47807253 333.6361737 72.78248248 327.24006893 74.15722656 320.8425293 C78.25376499 301.65314356 80.91861185 282.87529483 82.078125 263.30078125 C82.16852377 261.81008357 82.25917961 260.31940145 82.35009766 258.82873535 C82.56968939 255.21933114 82.78582339 251.60973007 83 248 C82.3697781 248.00368717 81.7395562 248.00737434 81.09023666 248.01117325 C65.75873306 248.09949332 50.42731788 248.16569436 35.09562302 248.20724869 C27.68133155 248.22787797 20.26720985 248.2560053 12.85302734 248.30175781 C6.39115291 248.34161469 -0.07059859 248.36743016 -6.53259254 248.37635398 C-9.95454357 248.38157078 -13.3761429 248.393839 -16.79798126 248.42292023 C-20.61716283 248.45185016 -24.43560975 248.45596019 -28.25488281 248.45410156 C-29.39064255 248.46848267 -30.52640228 248.48286377 -31.69657898 248.49768066 C-32.73701859 248.49218201 -33.77745819 248.48668335 -34.84942627 248.48101807 C-35.75278339 248.48470524 -36.65614052 248.48839241 -37.5868721 248.49219131 C-40.7713768 247.84266687 -41.97331106 246.48103988 -44 244 C-44.53125 242 -44.53125 242 -44.5 240 C-44.51546875 239.01 -44.51546875 239.01 -44.53125 238 C-43.75904316 235.09286838 -42.291118 233.90706988 -40 232 C-37.5868721 231.50780869 -37.5868721 231.50780869 -34.84942627 231.51898193 C-33.80898666 231.51348328 -32.76854706 231.50798462 -31.69657898 231.50231934 C-29.99293938 231.52389099 -29.99293938 231.52389099 -28.25488281 231.54589844 C-26.45447289 231.54502228 -26.45447289 231.54502228 -24.61769104 231.54412842 C-21.33056997 231.54643682 -18.04413104 231.5664891 -14.75714588 231.59442425 C-11.32052897 231.6194386 -7.88389849 231.62177991 -4.44720459 231.62652588 C2.05870455 231.63895563 8.56434466 231.67177697 15.07013535 231.71192384 C22.47754611 231.75664177 29.88496975 231.7786286 37.2924819 231.79870558 C52.52847705 231.84050982 67.76420382 231.91086156 83 232 C82.75304149 227.70441636 82.4999209 223.4092482 82.24163818 219.11433411 C82.15499516 217.66018462 82.06989509 216.20594219 81.98651123 214.75160217 C80.62447035 191.05260293 76.57056895 168.06998728 71 145 C70.95294922 144.28465088 70.90589844 143.56930176 70.85742188 142.83227539 C70.07416837 140.64704013 70.07416837 140.64704013 67.02612305 139.61889648 C65.69325824 139.18637209 64.35450633 138.77175252 63.01171875 138.37109375 C62.29018112 138.14047745 61.56864349 137.90986115 60.82524109 137.67225647 C59.26580905 137.1746905 57.70413625 136.68410551 56.14056396 136.19970703 C51.99360738 134.9111799 47.86659653 133.56168321 43.73828125 132.21484375 C42.90615112 131.94437225 42.074021 131.67390076 41.2166748 131.39523315 C12.45050883 121.98613208 -17.07192181 109.7570388 -43 94 C-44.60420518 90.79158965 -44.47462745 87.4806013 -44 84 C-42.5 81.5 -42.5 81.5 -40 80 C-32.76950305 79.19306056 -28.33327319 81.40093946 -22.0625 84.8125 C-20.0962331 85.83551598 -18.12738176 86.85357674 -16.15625 87.8671875 C-15.14046875 88.39022461 -14.1246875 88.91326172 -13.078125 89.45214844 C11.21718678 101.66917546 37.26534272 111.28157227 63 120 C52.98102777 93.6932014 40.59818474 68.33748924 22.38574219 46.65039062 C20.93235646 44.91943792 19.5016025 43.17112461 18.0703125 41.421875 C10.41952534 32.17836818 2.25836978 23.59158683 -7.625 16.6875 C-10.16963519 14.82816322 -11.05921294 13.89692563 -12.6875 11.0625 C-13.12295658 6.79502551 -12.05804301 4.74857833 -10 1 C-6.61259665 -0.69370167 -3.62256324 -0.78725639 0 0 Z " fill="#000000" transform="translate(60,16)"/>
<path d="M0 0 C2.54136268 0.98524873 4.66751134 1.94961636 7.015625 3.26171875 C7.66030731 3.60373322 8.30498962 3.94574768 8.96920776 4.29812622 C10.35097124 5.03256927 11.72902359 5.77403036 13.10357666 6.5218811 C16.78071845 8.51875929 20.48999449 10.45450118 24.1953125 12.3984375 C24.9429184 12.79229141 25.69052429 13.18614532 26.46078491 13.5919342 C70.61069628 36.78897305 119.13030641 53.40194695 167.69140625 64.46484375 C168.63216507 64.67991577 169.57292389 64.89498779 170.54219055 65.11657715 C175.19572557 66.177799 179.85187453 67.22253546 184.51586914 68.23681641 C202.34456505 72.18526609 218.98272162 78.20644058 235 87 C235.63389648 87.34788574 236.26779297 87.69577148 236.92089844 88.05419922 C255.87800967 98.61546593 272.76611956 112.79119504 286 130 C286.79921875 130.98355469 287.5984375 131.96710938 288.421875 132.98046875 C304.70582198 153.15667622 315.98231622 177.55301704 321 203 C321.25676514 204.29301025 321.51353027 205.58602051 321.77807617 206.91821289 C323.8423653 217.89002273 324.5243219 228.53761323 324.4375 239.6875 C324.43479095 240.51083832 324.43208191 241.33417664 324.42929077 242.1824646 C324.361765 255.77781843 323.30993644 268.7684743 320 282 C319.82339844 282.74330566 319.64679688 283.48661133 319.46484375 284.25244141 C312.71337416 312.07724802 298.3200286 336.87001277 279.01953125 357.79296875 C277.26095093 359.71482152 275.59180225 361.67647489 273.9375 363.6875 C249.58265251 392.14560984 211.26998752 405.75754213 176.03083801 413.63694763 C117.1166331 426.84773996 61.30695006 447.34736359 8.0559082 475.90014648 C7.07323975 476.42165283 6.09057129 476.94315918 5.078125 477.48046875 C4.21606445 477.94348389 3.35400391 478.40649902 2.46582031 478.88354492 C-1.08418845 480.49089048 -3.80171824 481.28530518 -7.625 480.375 C-10.65622768 478.62007871 -11.67542538 477.23784907 -13 474 C-13 470.33719954 -12.45893708 468.57686523 -10.17578125 465.70703125 C-5.92136622 461.63527446 -0.39548054 459.30459502 4.8125 456.6875 C5.94107422 456.11209473 7.06964844 455.53668945 8.23242188 454.94384766 C10.47911087 453.80024824 12.72792509 452.66081292 14.97900391 451.52587891 C17.43522301 450.28526395 19.88258256 449.03065232 22.32421875 447.76171875 C30.35067751 443.62007438 38.55386837 439.90452906 46.8125 436.25 C47.85083984 435.78964355 48.88917969 435.32928711 49.95898438 434.85498047 C54.92205708 432.6830423 59.82010079 430.71959862 64.98046875 429.06640625 C69.92306998 427.29291336 71.96955713 425.42135817 74.5 420.6875 C74.84981934 420.04506348 75.19963867 419.40262695 75.56005859 418.74072266 C76.74961224 416.51361676 77.87544731 414.26058042 79 412 C79.44375977 411.13810059 79.88751953 410.27620117 80.34472656 409.38818359 C87.23621841 395.96953931 92.63599514 382.4324939 97 368 C103.22987798 368.50512524 108.45474233 371.32604123 114 374 C112.87653549 377.61150023 111.72165928 381.21231344 110.5625 384.8125 C110.25634766 385.79798828 109.95019531 386.78347656 109.63476562 387.79882812 C106.33402055 397.9574319 101.70112566 407.42730563 97 417 C98.08788818 416.65855957 99.17577637 416.31711914 100.29663086 415.96533203 C123.92529642 408.57480446 147.58506035 401.88004136 171.6875 396.21875 C191.09737009 391.90046427 191.09737009 391.90046427 209.75 385.1875 C210.52964111 384.8462207 211.30928223 384.50494141 212.11254883 384.15332031 C214.42071536 383.12684013 216.71277711 382.07224684 219 381 C219.67015137 380.68691895 220.34030273 380.37383789 221.03076172 380.05126953 C236.4864792 372.68044138 249.85344938 361.97666879 262 350 C262.91136719 349.10152344 263.82273437 348.20304687 264.76171875 347.27734375 C295.91878494 314.96466598 306.82780532 272.88345461 306.17739868 229.15115356 C306.00363111 220.84278231 305.0916586 213.03211938 303 205 C302.70198486 203.8238916 302.70198486 203.8238916 302.39794922 202.62402344 C292.00369467 162.65091267 267.41903496 127.66368945 232 106 C228.86810735 104.16121192 225.70079268 102.40329773 222.5 100.6875 C221.79029053 100.30327881 221.08058105 99.91905762 220.34936523 99.52319336 C208.14430046 93.19851602 195.26417621 89.27679473 181.92504883 86.21630859 C177.88431965 85.28729688 173.8530329 84.31854117 169.8203125 83.35546875 C168.58858307 83.06257462 168.58858307 83.06257462 167.33197021 82.76376343 C159.02650424 80.78287324 150.75541882 78.67956813 142.5 76.5 C141.80894165 76.31763794 141.1178833 76.13527588 140.40588379 75.9473877 C125.79985733 72.07329878 111.38275465 67.63047277 97 63 C97.556875 64.093125 98.11375 65.18625 98.6875 66.3125 C105.07793182 79.16238087 109.74108022 92.30923392 114 106 C111.921188 107.00936536 109.8367638 108.00717846 107.75 109 C106.58984375 109.556875 105.4296875 110.11375 104.234375 110.6875 C101 112 101 112 97 112 C96.63390625 110.77410156 96.2678125 109.54820313 95.890625 108.28515625 C91.59972717 94.43880617 85.96145041 81.57068689 79.33398438 68.68701172 C78.21855567 66.44023128 77.24404249 64.21092733 76.328125 61.87890625 C72.53196016 53.57234968 66.96437491 51.17050786 58.8125 48.0625 C56.58383028 47.2541373 54.35329002 46.45091672 52.12109375 45.65234375 C44.62815751 42.95189659 37.51297994 39.62999854 30.375 36.125 C29.76999664 35.82901917 29.16499329 35.53303833 28.54165649 35.22808838 C24.35003867 33.17403116 20.17320789 31.09124729 16 29 C14.8646582 28.43361816 13.72931641 27.86723633 12.55957031 27.28369141 C9.36538824 25.68285682 6.18068683 24.06495911 3 22.4375 C2.05688965 21.96135254 1.1137793 21.48520508 0.14208984 20.99462891 C-4.64587032 18.50552672 -8.6250641 16.26525641 -12 12 C-12.90738141 8.97351665 -12.46433133 7.2503193 -12 4 C-9.12097475 -0.79837541 -5.13128939 -0.60802466 0 0 Z " fill="#000000" transform="translate(172,16)"/>
<path d="M0 0 C5.7183538 2.85554389 10.71361202 6.61002992 15.8125 10.4375 C17.49160817 11.68697682 19.17131104 12.93565481 20.8515625 14.18359375 C22.12821777 15.13274658 22.12821777 15.13274658 23.43066406 16.10107422 C28.20833477 19.63211971 33.03486564 23.09538409 37.8605957 26.56030273 C39.23633066 27.54977056 40.60452945 28.54981488 41.96435547 29.56103516 C43.98830033 31.04372681 43.98830033 31.04372681 46.24267578 32.26318359 C49.68079322 34.34635518 51.61365537 35.81508197 52.88549805 39.71582031 C54.03186484 47.56021834 54.93406747 58.15236292 50.68457031 65.17333984 C47.17821099 68.8909131 42.87796275 71.24999785 38.40527344 73.63867188 C34.09759829 76.07671457 30.21534783 79.11185534 26.25 82.0625 C24.75722884 83.13952476 23.26255977 84.21392595 21.765625 85.28515625 C19.77484388 86.71218759 17.82890884 88.13893602 15.92675781 89.68359375 C14 91 14 91 11.40625 90.77734375 C8.26485928 89.86954939 5.12869651 88.95076996 2 88 C0.89527344 87.72929687 -0.20945312 87.45859375 -1.34765625 87.1796875 C-2.40855469 86.89351563 -3.46945312 86.60734375 -4.5625 86.3125 C-5.53316406 86.06113281 -6.50382812 85.80976563 -7.50390625 85.55078125 C-11.15006849 83.28548171 -11.68381869 79.90209812 -13 76 C-13.30757736 75.10896072 -13.61515472 74.21792145 -13.93205261 73.29988098 C-16.20169914 66.68230192 -18.39987353 60.04057593 -20.59936523 53.39941406 C-21.41115861 50.95733569 -22.22891582 48.51723208 -23.05249023 46.07910156 C-24.24324664 42.55209293 -25.41463275 39.01917289 -26.58203125 35.484375 C-26.95479691 34.39268005 -27.32756256 33.30098511 -27.71162415 32.1762085 C-28.2078553 30.65377533 -28.2078553 30.65377533 -28.71411133 29.10058594 C-29.01150711 28.20982361 -29.30890289 27.31906128 -29.61531067 26.40130615 C-30.08034672 23.49846004 -29.59942648 22.41989411 -28 20 C-20.38419713 11.59973675 -10.09462151 5.04731075 0 0 Z " fill="#000000" transform="translate(276,142)"/>
<path d="M0 0 C11.92373477 5.37990636 21.5011345 13.09867702 31 22 C28.98672111 29.65966168 26.71348882 37.19920627 24.2421875 44.72265625 C23.7194072 46.3236039 23.7194072 46.3236039 23.18606567 47.95689392 C22.45621498 50.19002422 21.72506999 52.42273189 20.99267578 54.6550293 C19.86814154 58.08340945 18.74822572 61.51327355 17.62890625 64.94335938 C16.91693594 67.11987977 16.2047058 69.29631519 15.4921875 71.47265625 C15.15677948 72.49964127 14.82137146 73.52662628 14.47579956 74.58473206 C14.00993942 76.00277382 14.00993942 76.00277382 13.53466797 77.44946289 C13.26169891 78.28232315 12.98872986 79.11518341 12.70748901 79.97328186 C12 82 12 82 11 84 C7.52065536 85.52707328 3.86639479 86.59183812 0.25 87.75 C-0.75289063 88.09160156 -1.75578125 88.43320313 -2.7890625 88.78515625 C-3.76101563 89.09839844 -4.73296875 89.41164063 -5.734375 89.734375 C-6.62350586 90.02538086 -7.51263672 90.31638672 -8.42871094 90.61621094 C-12.78665798 91.2666755 -15.36725004 89.45258594 -18.83984375 86.96875 C-19.86207031 86.1540625 -20.88429688 85.339375 -21.9375 84.5 C-27.1816194 80.37015182 -32.52209056 76.42100815 -37.97827148 72.57617188 C-39.07421563 71.80244873 -40.16237299 71.0175842 -41.24267578 70.22216797 C-43.02321189 68.93958688 -43.02321189 68.93958688 -45.14404297 67.81298828 C-48.60353159 65.71715027 -50.60559031 64.20320327 -51.8918457 60.27929688 C-53.02465074 52.43105709 -53.93547341 41.84995996 -49.68457031 34.82666016 C-46.16446052 31.09450814 -41.83794801 28.72151602 -37.34814453 26.32177734 C-33.33745634 24.06414937 -29.74285408 21.251817 -26.0625 18.5 C-24.56920451 17.41929991 -23.07309413 16.34247892 -21.57421875 15.26953125 C-20.82833496 14.73537598 -20.08245117 14.2012207 -19.31396484 13.65087891 C-12.89610024 9.07210697 -6.45094692 4.53199435 0 0 Z " fill="#000000" transform="translate(395,142)"/>
<path d="M0 0 C0.69994583 0.09498779 1.39989166 0.18997559 2.12104797 0.2878418 C7.83941086 1.1385419 13.34198246 2.43544824 18 6 C22.70819374 12.55544919 24.25351833 20.86169333 26.1875 28.5625 C26.78179006 30.66269223 27.38265052 32.76103691 27.99023438 34.85742188 C29.07026243 38.69427047 30.13911437 42.53169593 31.11401367 46.39672852 C31.31065109 47.16694839 31.50728851 47.93716827 31.70988464 48.73072815 C32.54993573 55.30157741 29.09695106 61.20760071 25.5112915 66.44897461 C21.49396266 71.14701865 18.03767431 72.56834912 11.91992188 73.30078125 C3.9710019 73.84554658 -4.00713285 73.47665037 -11.95550537 73.09863281 C-15.79574763 72.93355337 -19.63768538 72.86159485 -23.48046875 72.78125 C-30.99160672 72.61073992 -38.49435607 72.33855719 -46 72 C-46.96980412 70.10412477 -47.93456321 68.20566833 -48.8972168 66.30615234 C-49.43501266 65.24923187 -49.97280853 64.1923114 -50.52690125 63.10336304 C-52.45741526 59.03636765 -53.71840929 54.97832936 -54.8125 50.625 C-55.01552734 49.87089844 -55.21855469 49.11679687 -55.42773438 48.33984375 C-56.50899415 44.25032658 -57.38153841 40.1895785 -58 36 C-37.56587545 20.88476793 -37.56587545 20.88476793 -27.4465332 13.6472168 C-23.92326303 11.12680456 -20.43370046 8.58138276 -17.0078125 5.9296875 C-16.38173096 5.45499023 -15.75564941 4.98029297 -15.1105957 4.49121094 C-13.95353823 3.6120672 -12.80767549 2.71788589 -11.67651367 1.80566406 C-7.40254466 -1.40098081 -5.09361258 -0.92994481 0 0 Z " fill="#000000" transform="translate(267,241)"/>
<path d="M0 0 C1.41930593 1.09929402 2.83992886 2.19688929 4.26171875 3.29296875 C4.99696777 3.86321777 5.7322168 4.4334668 6.48974609 5.02099609 C10.20673317 7.86434266 14.00885841 10.58678868 17.8125 13.3125 C25.8282977 19.075645 33.79886075 24.89805533 41.75 30.75 C36.79854369 56.17718447 36.79854369 56.17718447 29.75 66.75 C27.12931824 67.22515869 27.12931824 67.22515869 23.76245117 67.36035156 C22.50321335 67.41499573 21.24397552 67.46963989 19.94657898 67.52593994 C18.56212548 67.5670727 17.17758065 67.60522323 15.79296875 67.640625 C15.0939123 67.65909233 14.39485584 67.67755966 13.67461586 67.69658661 C9.96397854 67.7885982 6.25361634 67.85679778 2.54223633 67.91015625 C-0.51141534 67.95886838 -3.55741922 68.05574939 -6.6081543 68.19726562 C-33.11135243 69.39945988 -33.11135243 69.39945988 -40.25927734 63.12304688 C-44.65620416 58.16456098 -48.33694516 53.09987604 -48.16040039 46.29785156 C-47.85996826 45.12706055 -47.55953613 43.95626953 -47.25 42.75 C-46.92500533 41.23707585 -46.60049759 39.72404705 -46.27636719 38.2109375 C-38.45129628 5.09147224 -38.45129628 5.09147224 -31.67431641 -1.91162109 C-20.95045972 -8.52044306 -9.53451981 -7.61400022 0 0 Z " fill="#000000" transform="translate(421.25,246.25)"/>
<path d="M0 0 C3.52227305 0.09683561 7.00340397 0.00097525 10.52441406 -0.11425781 C19.19518995 -0.16835685 27.35508133 -0.04705207 34.22070312 5.79638672 C38.77064773 10.63902231 42.32702241 16.06302415 42.62768555 22.85668945 C42.00191185 29.18961873 39.65318021 34.87659384 37.26660156 40.72167969 C36.63240374 42.44274905 36.00605002 44.16672983 35.38769531 45.89355469 C34.14339346 49.33238055 32.84754852 52.74414693 31.50683594 56.14648438 C30.09869397 59.75242079 28.81435032 63.37747474 27.60449219 67.0546875 C27.29771545 67.97931793 26.99093872 68.90394836 26.67486572 69.8565979 C26.09134742 71.63246851 25.5202736 73.41248935 24.96331787 75.1968689 C24.70020813 75.98961212 24.43709839 76.78235535 24.16601562 77.59912109 C23.94302795 78.30050201 23.72004028 79.00188293 23.49029541 79.72451782 C22.51660156 81.34667969 22.51660156 81.34667969 20.61004639 82.07281494 C17.63017386 82.46264228 14.7092344 82.47669188 11.70410156 82.47949219 C11.0533667 82.48044891 10.40263184 82.48140564 9.73217773 82.48239136 C8.36051334 82.48306987 6.98884567 82.48123856 5.6171875 82.47705078 C3.5236893 82.47169781 1.43040563 82.47700685 -0.66308594 82.48339844 C-1.99902391 82.4827376 -3.33496175 82.48145631 -4.67089844 82.47949219 C-5.88132812 82.47836426 -7.09175781 82.47723633 -8.33886719 82.47607422 C-9.3765625 82.43337402 -10.41425781 82.39067383 -11.48339844 82.34667969 C-12.59171021 82.33024414 -12.59171021 82.33024414 -13.72241211 82.31347656 C-16.8738837 80.58329114 -17.43033178 76.99093835 -18.47167969 73.74511719 C-18.73660721 72.96506317 -19.00153473 72.18500916 -19.27449036 71.38131714 C-20.13395393 68.8339777 -20.96765331 66.2793292 -21.79589844 63.72167969 C-22.6516895 61.09512004 -23.50770239 58.46863277 -24.36376953 55.84216309 C-24.93012567 54.10153696 -25.49393235 52.36007923 -26.05517578 50.61779785 C-27.93858207 44.82404699 -30.05198853 39.23568895 -32.53930664 33.67041016 C-36.65128777 21.84811228 -36.65128777 21.84811228 -33.73681641 15.48730469 C-25.31678784 1.33096483 -15.81180484 -0.51747725 0 0 Z " fill="#000000" transform="translate(332.4833984375,301.6533203125)"/>
<path d="M0 0 C3.68810896 1.66588497 6.86578747 3.94495883 10.125 6.3125 C11.36189204 7.20715172 12.59887611 8.10167622 13.8359375 8.99609375 C14.49948242 9.47675293 15.16302734 9.95741211 15.84667969 10.45263672 C18.16997425 12.1221425 20.50945264 13.76716295 22.8515625 15.41015625 C24.48444019 16.56501199 26.11725351 17.71995877 27.75 18.875 C28.53648926 19.42196533 29.32297852 19.96893066 30.13330078 20.5324707 C30.86790527 21.05542725 31.60250977 21.57838379 32.359375 22.1171875 C33.01389648 22.57722168 33.66841797 23.03725586 34.34277344 23.51123047 C36.2770694 25.24890531 37.0649943 26.57645092 38 29 C37.75370789 31.0308075 37.75370789 31.0308075 37.04956055 33.2019043 C36.66377083 34.42788582 36.66377083 34.42788582 36.27018738 35.67863464 C35.97864273 36.5516774 35.68709808 37.42472015 35.38671875 38.32421875 C35.09771194 39.22622513 34.80870514 40.12823151 34.51094055 41.05757141 C33.58358258 43.93888536 32.63545601 46.81290561 31.6875 49.6875 C31.05925692 51.63565219 30.432288 53.58421577 29.80664062 55.53320312 C28.65792322 59.08662826 27.50914337 62.63997075 26.33862305 66.1862793 C26.10386765 66.90035446 25.86911224 67.61442963 25.62724304 68.35014343 C25 70 25 70 24 71 C22.55710213 71.09295815 21.10970215 71.11746513 19.66381836 71.11352539 C18.28249977 71.11341209 18.28249977 71.11341209 16.87327576 71.11329651 C15.87224319 71.10813522 14.87121063 71.10297394 13.83984375 71.09765625 C12.31043907 71.09553383 12.31043907 71.09553383 10.75013733 71.09336853 C7.47922893 71.08775097 4.20838787 71.0751955 0.9375 71.0625 C-1.27408756 71.05748726 -3.48567618 71.05292396 -5.69726562 71.04882812 C-11.13153357 71.03777584 -16.56576197 71.02102063 -22 71 C-24.408522 65.11025608 -26.7010444 59.22254418 -28.6484375 53.1640625 C-28.86948151 52.47742523 -29.09052551 51.79078796 -29.31826782 51.08334351 C-29.77577329 49.65409455 -30.23104176 48.22412762 -30.68408203 46.79345703 C-31.14879612 45.33494447 -31.62027615 43.87857218 -32.09814453 42.42431641 C-32.79604743 40.30024347 -33.47436898 38.17080145 -34.1484375 36.0390625 C-34.75437744 34.15501709 -34.75437744 34.15501709 -35.37255859 32.23291016 C-36 29 -36 29 -35.33886719 26.73583984 C-33.85326227 24.80975469 -32.42542397 23.57845266 -30.4296875 22.1875 C-29.34276611 21.41829224 -29.34276611 21.41829224 -28.23388672 20.63354492 C-27.4554541 20.0944751 -26.67702148 19.55540527 -25.875 19 C-24.24904197 17.85161566 -22.6240636 16.70184316 -21 15.55078125 C-19.75863281 14.67413818 -19.75863281 14.67413818 -18.4921875 13.77978516 C-14.57147173 10.97982258 -10.72098013 8.08886882 -6.875 5.1875 C-6.1826123 4.66607422 -5.49022461 4.14464844 -4.77685547 3.60742188 C-3.18348579 2.40638536 -1.59156292 1.20342973 0 0 Z " fill="#000000" transform="translate(335,217)"/>
<path d="M0 0 C17.82 0 35.64 0 54 0 C50.08513646 6.8510112 45.7088347 11.98162241 40.33251953 17.60009766 C39.20463517 18.78501685 38.09790568 19.99001774 36.99609375 21.19921875 C24.38646679 34.62588417 4.8458497 46.40126181 -13 51 C-13.99 51 -14.98 51 -16 51 C-13.30951128 40.2739183 -9.75328063 29.8144349 -6.3125 19.3125 C-4.229375 12.939375 -2.14625 6.56625 0 0 Z " fill="#000000" transform="translate(388,328)"/>
<path d="M0 0 C17.82 0 35.64 0 54 0 C56.64 8.04375 59.28 16.0875 62 24.375 C62.8353125 26.91493652 63.670625 29.45487305 64.53125 32.07177734 C65.18773403 34.07642077 65.8439992 36.08113589 66.5 38.0859375 C66.84546875 39.13370361 67.1909375 40.18146973 67.546875 41.26098633 C68.03414062 42.75287476 68.03414062 42.75287476 68.53125 44.27490234 C68.81548828 45.14094086 69.09972656 46.00697937 69.39257812 46.89926147 C70 49 70 49 70 51 C63.056698 49.70822288 57.15974959 47.57060599 50.8125 44.5 C49.4371106 43.83786499 49.4371106 43.83786499 48.03393555 43.16235352 C35.91539866 37.16738144 25.75392709 29.35715717 16 20 C15.21882812 19.27039063 14.43765625 18.54078125 13.6328125 17.7890625 C8.32128953 12.69214652 3.87143588 7.27396683 0 1 C0 0.67 0 0.34 0 0 Z " fill="#000000" transform="translate(230,328)"/>
<path d="M0 0 C1.07655853 -0.00200912 1.07655853 -0.00200912 2.17486572 -0.00405884 C12.59684875 0.00017003 22.46729823 0.4274121 32.5625 3.25 C34.12871094 3.67925781 34.12871094 3.67925781 35.7265625 4.1171875 C38.02482621 4.78197452 40.29706751 5.48214909 42.5625 6.25 C42.5625 7.24 42.5625 8.23 42.5625 9.25 C41.19580078 10.57763672 41.19580078 10.57763672 39.2578125 11.9296875 C38.53746826 12.44023682 37.81712402 12.95078613 37.07495117 13.47680664 C35.89316284 14.29266235 35.89316284 14.29266235 34.6875 15.125 C33.04019562 16.28752104 31.39306537 17.45028884 29.74609375 18.61328125 C28.89257324 19.21092285 28.03905273 19.80856445 27.15966797 20.42431641 C22.99679414 23.35061557 18.87401061 26.33181335 14.75 29.3125 C14.00443848 29.84794434 13.25887695 30.38338867 12.49072266 30.93505859 C8.76765791 33.61603981 5.11326808 36.34102105 1.5625 39.25 C-2.12576991 37.58404233 -5.30269562 35.3043731 -8.5625 32.9375 C-9.16143066 32.50598633 -9.76036133 32.07447266 -10.37744141 31.62988281 C-11.68939284 30.6840496 -13.00038506 29.73688484 -14.31054688 28.78857422 C-16.5637276 27.15869073 -18.82063801 25.53406932 -21.078125 23.91015625 C-22.6563772 22.77361411 -24.23450383 21.63689759 -25.8125 20.5 C-26.54871582 19.96979248 -27.28493164 19.43958496 -28.04345703 18.89331055 C-32.88240851 15.39899675 -37.67471115 11.84740852 -42.4375 8.25 C-41.4375 6.25 -41.4375 6.25 -39.69091797 5.57983398 C-38.57160889 5.29088257 -38.57160889 5.29088257 -37.4296875 4.99609375 C-36.19605469 4.67415039 -36.19605469 4.67415039 -34.9375 4.34570312 C-34.07125 4.12849609 -33.205 3.91128906 -32.3125 3.6875 C-31.46945312 3.46642578 -30.62640625 3.24535156 -29.7578125 3.01757812 C-19.82470723 0.46489346 -10.20373718 0.01117526 0 0 Z " fill="#000000" transform="translate(335.4375,127.75)"/>
<path d="M0 0 C2.19242072 2.19242072 2.65846039 3.48191931 3.61987305 6.38623047 C3.92326096 7.29412323 4.22664886 8.20201599 4.53923035 9.13742065 C4.86015152 10.12074371 5.18107269 11.10406677 5.51171875 12.1171875 C5.8442012 13.12588898 6.17668365 14.13459045 6.51924133 15.17385864 C7.22082248 17.30969426 7.91915546 19.44659914 8.61450195 21.58447266 C9.68214684 24.85858364 10.76723073 28.12656468 11.85351562 31.39453125 C12.53232452 33.4683986 13.21009375 35.5426066 13.88671875 37.6171875 C14.37720955 39.0860994 14.37720955 39.0860994 14.87760925 40.58468628 C15.17154068 41.49888336 15.46547211 42.41308044 15.76831055 43.35498047 C16.03097214 44.15725067 16.29363373 44.95952087 16.56425476 45.78610229 C17.04956757 48.25183874 16.87091653 49.65877168 16 52 C14.51977539 53.44116211 14.51977539 53.44116211 12.59765625 54.77734375 C11.52185303 55.53845459 11.52185303 55.53845459 10.42431641 56.31494141 C9.64491699 56.85038574 8.86551758 57.38583008 8.0625 57.9375 C6.4255665 59.08953867 4.78885439 60.24189197 3.15234375 61.39453125 C2.30526855 61.98572754 1.45819336 62.57692383 0.58544922 63.18603516 C-3.59947307 66.12219876 -7.73544698 69.12539191 -11.875 72.125 C-12.629021 72.66890381 -13.38304199 73.21280762 -14.15991211 73.77319336 C-14.86768799 74.28374268 -15.57546387 74.79429199 -16.3046875 75.3203125 C-16.92327637 75.76648926 -17.54186523 76.21266602 -18.17919922 76.67236328 C-19.5093623 77.64225157 -20.81532952 78.6455716 -22.10595703 79.66748047 C-24 81 -24 81 -26 81 C-27.16959396 52.27997056 -19.48400145 21.98998235 0 0 Z " fill="#000000" transform="translate(234,178)"/>
<path d="M0 0 C13.7657808 12.09720131 20.78522875 32.64956734 25 50 C25.24621094 51.01191406 25.49242187 52.02382812 25.74609375 53.06640625 C27.6018237 62.26826716 27.17585483 71.6601544 27 81 C22.210087 79.43985691 18.73810789 76.73183906 14.8125 73.6875 C13.3982744 72.60788137 11.98286185 71.52981621 10.56640625 70.453125 C9.82664551 69.89044922 9.08688477 69.32777344 8.32470703 68.74804688 C3.58435715 65.18357458 -1.24311768 61.73888272 -6.05932617 58.27807617 C-6.77709229 57.76220947 -7.4948584 57.24634277 -8.234375 56.71484375 C-8.86569336 56.26230225 -9.49701172 55.80976074 -10.14746094 55.34350586 C-12.11465648 53.91684836 -14.05959061 52.46282385 -16 51 C-14.68149416 44.66506885 -13.01995724 38.58417182 -10.99609375 32.44140625 C-10.57107323 31.13586037 -10.57107323 31.13586037 -10.13746643 29.80393982 C-9.54356929 27.98233665 -8.94767414 26.16138377 -8.34985352 24.34106445 C-7.43247517 21.54719693 -6.52140107 18.75133288 -5.61132812 15.95507812 C-5.03161271 14.17956903 -4.45154723 12.40417419 -3.87109375 10.62890625 C-3.59817001 9.79251114 -3.32524628 8.95611603 -3.04405212 8.09437561 C-1.11687051 2.23374102 -1.11687051 2.23374102 0 0 Z " fill="#000000" transform="translate(437,178)"/>
</svg>
