<?xml version="1.0" encoding="UTF-8"?>
<svg version="1.1" xmlns="http://www.w3.org/2000/svg" width="512" height="512">
<path d="M0 0 C28.14407721 11.34238718 49.26318153 32.42214957 61.46484375 60.1796875 C68.36456028 76.75423647 69.3082975 94.25941541 69.22705078 111.95092773 C69.22643652 113.72493258 69.2267078 115.49893791 69.2277813 117.27294254 C69.22822851 121.97730527 69.21672849 126.681564 69.20256042 131.3859024 C69.19107864 135.81785877 69.19062923 140.24979123 69.18920898 144.6817627 C69.17875945 157.6003553 69.15083691 170.51892901 69.125 183.4375 C69.08375 212.333125 69.0425 241.22875 69 271 C-26.7 271 -122.4 271 -221 271 C-221 258.46 -221 245.92 -221 233 C-211.82461426 232.97812622 -211.82461426 232.97812622 -202.46386719 232.95581055 C-182.25147876 232.9054692 -162.03916695 232.83902446 -141.82685471 232.76428509 C-129.57240409 232.71936461 -117.31798228 232.67994125 -105.06347656 232.65356445 C-94.37952461 232.63055408 -83.69566414 232.59712201 -73.01178479 232.55129844 C-67.35741914 232.52740732 -61.70314387 232.50865158 -56.04872894 232.50238609 C-50.72010922 232.49631669 -45.39172063 232.47624977 -40.06318665 232.44572449 C-38.11382404 232.43697398 -36.16443118 232.43321545 -34.21504974 232.43499184 C-15.5620354 232.44661655 0.68612326 229.9536668 14.74609375 216.48046875 C21.26953587 209.30129068 25.21683142 201.23233879 28 192 C28.19335938 191.401875 28.38671875 190.80375 28.5859375 190.1875 C31.45573604 175.02630019 27.67035285 160.47699401 19.5078125 147.65625 C10.90381422 135.63535288 -2.15756839 128.97066007 -16.47988892 126.43655396 C-24.02410992 125.50094157 -31.63841157 125.63495167 -39.23046875 125.5859375 C-41.07563616 125.56719596 -42.92079527 125.5476204 -44.76594543 125.5272522 C-49.58756585 125.47624016 -54.40921396 125.43645027 -59.23095703 125.39910889 C-64.16510697 125.35887377 -69.0991448 125.30787109 -74.03320312 125.2578125 C-83.68872297 125.16142014 -93.34430659 125.07689964 -103 125 C-107.19529744 110.50717019 -111.19213106 95.97148065 -115.0546875 81.38671875 C-115.6064467 79.30918396 -116.15838094 77.23169566 -116.71047974 75.1542511 C-118.1423984 69.76436457 -119.57198651 64.37386276 -121.0010376 58.98321533 C-122.46799427 53.45131651 -123.93722674 47.92002219 -125.40625 42.38867188 C-128.27302176 31.59302798 -131.1373241 20.79673065 -134 10 C-129.87668321 8.75882875 -127.44538964 9.54805917 -123.3125 10.8125 C-111.97626221 14.07832579 -99.80125727 15.79249319 -88 15 C-86.19595703 14.88011719 -86.19595703 14.88011719 -84.35546875 14.7578125 C-64.98487674 13.1267515 -45.54220888 7.32953816 -29.625 -4.0625 C-21.25281332 -9.40837678 -8.48408884 -3.20544024 0 0 Z " fill="#000000" transform="translate(349,241)"/>
<path d="M0 0 C3.21106826 12.03423464 6.42149038 24.06864157 9.63147736 36.10316467 C10.16735047 38.1121905 10.703234 40.12121354 11.23912811 42.13023376 C17.81834425 66.7953198 24.39158097 91.46197987 30.94921875 116.1328125 C31.23114767 117.1933849 31.51307659 118.25395729 31.80354881 119.34666824 C34.5433254 129.65329073 37.28258367 139.96005025 40.01977825 150.26735878 C41.03318464 154.08302208 42.04707946 157.89855545 43.06116295 161.71403885 C43.54204614 163.5236024 44.02276342 165.33321005 44.50330544 167.14286423 C47.42480836 178.14308176 50.35818749 189.13923151 53.44668579 200.09405518 C54.2979564 203.15441256 55 205.80653796 55 209 C7.81 209 -39.38 209 -88 209 C-88.04125 191.159375 -88.0825 173.31875 -88.125 154.9375 C-88.14320801 149.33128662 -88.16141602 143.72507324 -88.18017578 137.94897461 C-88.18920898 131.03430176 -88.18920898 131.03430176 -88.19088745 127.78395081 C-88.19393252 125.54293521 -88.20091165 123.30192262 -88.21115112 121.06092834 C-88.34009747 91.31959562 -84.8531893 62.65486384 -65 39 C-64.30261719 38.1646875 -63.60523437 37.329375 -62.88671875 36.46875 C-48.49429268 19.90339992 -23.62849389 0 0 0 Z " fill="#000000" transform="translate(182,236)"/>
<path d="M0 0 C58.08 0 116.16 0 176 0 C176 74.71136477 176 74.71136477 150.00390625 101.18359375 C132.67352069 117.9161816 110.01833132 125.95460041 86.15771484 126.04345703 C61.03088916 125.53739514 40.30532128 114.94090887 22.703125 97.7578125 C-3.02185347 70.53719575 0 36.28070387 0 0 Z " fill="#000000" transform="translate(168,102)"/>
<path d="M0 0 C9.5887421 -0.09306539 19.17732647 -0.16394904 28.76642323 -0.20724869 C33.22001519 -0.22804024 37.67329602 -0.25620175 42.12670898 -0.30175781 C46.43206996 -0.34551906 50.73713343 -0.36920037 55.04269981 -0.37950897 C56.67760584 -0.38684644 58.31249731 -0.40117348 59.94727516 -0.42292023 C70.27942851 -0.55478084 80.23154757 -0.50021112 88.75390625 6.1484375 C89.35074219 6.88320313 89.94757813 7.61796875 90.5625 8.375 C91.18253906 9.10460937 91.80257812 9.83421875 92.44140625 10.5859375 C96.73136525 17.23053566 96.72368445 24.34022301 96 32 C94.25289031 39.02361547 88.80765526 43.99666482 83 48 C78.67628263 49.71902196 75.08222069 50.24538427 70.44384766 50.22705078 C68.52253525 50.22682419 68.52253525 50.22682419 66.56240845 50.22659302 C65.17962485 50.21638209 63.79684288 50.20595014 62.4140625 50.1953125 C60.98774413 50.19157835 59.56142318 50.18873328 58.13510132 50.18673706 C54.39667573 50.17913219 50.65840767 50.15951109 46.92004395 50.1373291 C43.09906138 50.11680257 39.27805316 50.10772084 35.45703125 50.09765625 C27.97128267 50.07626192 20.48566348 50.0421644 13 50 C9.64232415 38.30939069 6.29493574 26.61817102 3.125 14.875 C2.66480469 13.19470703 2.66480469 13.19470703 2.1953125 11.48046875 C1.7621875 9.87751953 1.7621875 9.87751953 1.3203125 8.2421875 C1.06523926 7.3022998 0.81016602 6.36241211 0.54736328 5.39404297 C0 3 0 3 0 0 Z " fill="#000000" transform="translate(254,395)"/>
<path d="M0 0 C1.13808105 0.00161133 2.27616211 0.00322266 3.44873047 0.00488281 C15.81019437 0.18314795 27.65842542 1.95342366 38.4375 8.375 C38.4375 9.035 38.4375 9.695 38.4375 10.375 C36.99080446 11.0179758 35.54410869 11.6609511 34.09741211 12.30392456 C32.7638313 12.89662946 31.43025398 13.48934221 30.09667969 14.08206177 C26.19368351 15.81676943 22.29061905 17.55132323 18.38745117 19.28564453 C10.33411235 22.8642241 2.28127391 26.44391408 -5.76950073 30.02825928 C-31.66556107 41.55739584 -57.59502622 53.00760375 -83.5625 64.375 C-84.5625 62.375 -84.5625 62.375 -83.59375 59.28515625 C-83.09553839 57.99781394 -82.58421781 56.71549669 -82.0625 55.4375 C-81.78768799 54.76235352 -81.51287598 54.08720703 -81.22973633 53.39160156 C-72.07435167 31.62918257 -54.54514221 14.94157215 -32.9140625 5.83984375 C-21.89395388 1.7401721 -11.74376272 -0.017375 0 0 Z " fill="#000000" transform="translate(255.5625,-0.375)"/>
<path d="M0 0 C11.39845307 11.13939732 18.05947928 27.47583423 20 43 C-19.6 43 -59.2 43 -100 43 C-96.14841757 40.11131318 -92.42191478 38.27745321 -88.046875 36.40234375 C-87.25050629 36.05568665 -86.45413757 35.70902954 -85.63363647 35.35186768 C-83.90939833 34.6017225 -82.18416981 33.85385051 -80.45806885 33.10800171 C-75.83425752 31.1094635 -71.21816302 29.09325121 -66.6015625 27.078125 C-65.64833099 26.66245773 -64.69509949 26.24679047 -63.71298218 25.81852722 C-53.48280935 21.35075291 -43.30041884 16.77833002 -33.125 12.1875 C-32.28755249 11.80995575 -31.45010498 11.4324115 -30.58728027 11.04342651 C-28.96113368 10.31021687 -27.33515197 9.57664141 -25.70935059 8.84266663 C-24.18525066 8.15501639 -22.66061147 7.46855982 -21.13537598 6.78343201 C-17.92825445 5.33993196 -14.74106913 3.87503579 -11.57324219 2.34619141 C-10.10999512 1.64308838 -10.10999512 1.64308838 -8.6171875 0.92578125 C-7.80620605 0.52399658 -6.99522461 0.12221191 -6.15966797 -0.29174805 C-3.59657526 -1.13230106 -2.47283662 -1.03510364 0 0 Z " fill="#000000" transform="translate(323,30)"/>
</svg>
