<?xml version="1.0" encoding="UTF-8"?>
<svg version="1.1" xmlns="http://www.w3.org/2000/svg" width="512" height="512">
<path d="M0 0 C0.95129288 -0.0065712 1.90258575 -0.0131424 2.88270569 -0.01991272 C6.0481066 -0.03970851 9.2134598 -0.05132565 12.37890625 -0.0612793 C13.45897949 -0.06535482 14.53905273 -0.06943035 15.65185547 -0.07362938 C21.3745098 -0.0945224 27.09713995 -0.10880695 32.81982422 -0.11816406 C38.72340217 -0.12920182 44.62660042 -0.1635622 50.53004456 -0.20333576 C55.07351362 -0.22953354 59.61689296 -0.237859 64.16043091 -0.24144554 C66.33564807 -0.24630767 68.51086133 -0.25791092 70.68600464 -0.27648354 C73.74018951 -0.30092901 76.79340273 -0.29989919 79.84765625 -0.29296875 C81.18534813 -0.31218384 81.18534813 -0.31218384 82.55006409 -0.33178711 C91.62720264 -0.25710066 98.58515524 3.09602491 105.15234375 9.27075195 C113.72581139 18.40580044 114.26774685 29.26239535 114.13671875 41.3137207 C114.13388885 42.31917435 114.13105896 43.32462799 114.12814331 44.36054993 C114.11707112 47.52866216 114.09199182 50.69647716 114.06640625 53.86450195 C114.05635966 56.03051346 114.04723677 58.19652945 114.0390625 60.36254883 C114.0171745 65.63413226 113.98382917 70.90554586 113.94140625 76.17700195 C113.07974854 76.19158447 112.21809082 76.20616699 111.33032227 76.22119141 C108.0926625 76.28273064 104.85559697 76.35696978 101.6184082 76.43945312 C100.22496263 76.47243504 98.83139203 76.50054762 97.43774414 76.5234375 C85.80438275 76.71962264 75.51458781 77.54766418 66.94140625 86.17700195 C60.53451115 95.10437609 59.62107474 103.91936867 59.31640625 114.61450195 C59.25839844 116.28416016 59.25839844 116.28416016 59.19921875 117.98754883 C59.10549659 120.71720672 59.01978331 123.44686759 58.94140625 126.17700195 C57.91660156 126.4605957 56.89179688 126.74418945 55.8359375 127.03637695 C38.07569571 132.12475987 23.88324812 140.06422294 14.62646484 156.52172852 C6.99472651 171.16061279 6.25059282 186.47370537 10.94140625 202.17700195 C16.01211399 215.43885295 25.01839482 227.65376211 37.94140625 234.17700195 C44.47277357 237.02053626 51.08590719 239.2774934 57.94140625 241.17700195 C57.96122559 241.79631592 57.98104492 242.41562988 58.00146484 243.05371094 C58.09775856 245.90767584 58.20700722 248.76101052 58.31640625 251.61450195 C58.34734375 252.58838867 58.37828125 253.56227539 58.41015625 254.56567383 C58.82882616 264.99753248 60.24940862 273.82618287 66.94140625 282.17700195 C73.52343429 287.79721956 79.77542539 290.38418966 88.4296875 290.59106445 C89.1328862 290.6104306 89.8360849 290.62979675 90.56059265 290.64974976 C92.79157644 290.70920379 95.02261279 290.75579245 97.25390625 290.80200195 C98.77280811 290.84021332 100.29168903 290.87926687 101.81054688 290.91918945 C105.52064092 291.01487612 109.23089276 291.09903268 112.94140625 291.17700195 C113.01791571 297.97217539 113.07019785 304.76723636 113.10620117 311.56274414 C113.12122166 313.8710546 113.14164404 316.17933684 113.16772461 318.48754883 C113.2044051 321.8190002 113.22120056 325.1500719 113.234375 328.48168945 C113.24985886 329.50189178 113.26534271 330.52209412 113.28129578 331.57321167 C113.28415047 343.92286744 109.82562858 352.15593724 101.25390625 360.92700195 C90.79717989 368.78617142 78.24767925 367.72327219 65.86450195 367.63110352 C63.7348279 367.62997388 61.60515228 367.63061116 59.47547913 367.63287354 C53.71997772 367.63401707 47.96481253 367.61056596 42.20938897 367.58257771 C36.18495421 367.55750399 30.160511 367.55521734 24.1360321 367.55047607 C12.73946616 367.53806384 1.34305443 367.50526588 -10.05344373 367.46507812 C-25.46173801 367.41192758 -40.87007472 367.39040078 -56.27843761 367.36706924 C-80.53860509 367.3295033 -104.79844717 367.24980059 -129.05859375 367.17700195 C-129.05859375 329.55700195 -129.05859375 291.93700195 -129.05859375 253.17700195 C-125.59359375 252.18700195 -125.59359375 252.18700195 -122.05859375 251.17700195 C-103.30571022 245.6565831 -87.17247472 236.64182398 -77.05859375 219.17700195 C-67.9936662 202.18294157 -65.04707656 183.97096518 -69.68359375 165.11450195 C-72.96620038 154.57560698 -77.77540405 145.47174578 -85.05859375 137.17700195 C-85.64125 136.50024414 -86.22390625 135.82348633 -86.82421875 135.1262207 C-97.9282662 123.11238786 -113.2782611 117.16982366 -129.05859375 114.17700195 C-129.05859375 112.85700195 -129.05859375 111.53700195 -129.05859375 110.17700195 C-128.4759375 110.08201416 -127.89328125 109.98702637 -127.29296875 109.88916016 C-89.41318004 103.61680914 -56.44739713 88.64338176 -33.05859375 57.17700195 C-21.86699792 40.75587861 -14.3867987 23.30150909 -10.63671875 3.80981445 C-9.42694414 -1.69956449 -4.74960075 0.0140654 0 0 Z " fill="#000000" transform="translate(392.05859375,133.822998046875)"/>
<path d="M0 0 C0.97623322 -0.00029205 1.95246643 -0.00058411 2.95828247 -0.00088501 C6.17231252 0.00050391 9.38610829 0.01604466 12.60009766 0.03173828 C14.83354567 0.03546996 17.06699532 0.0383162 19.30044556 0.04031372 C25.16945949 0.04793794 31.03837392 0.06757611 36.90734863 0.08972168 C42.89997003 0.11020615 48.89260756 0.11932101 54.88525391 0.12939453 C66.63659963 0.15082308 78.38787161 0.18494447 90.13916016 0.22705078 C90.30618942 0.85225616 90.47321869 1.47746155 90.64530945 2.12161255 C91.41463849 4.99360838 92.18897248 7.86423255 92.96337891 10.73486328 C93.22598511 11.71817627 93.48859131 12.70148926 93.75915527 13.71459961 C102.22651194 45.0157903 120.71538489 73.13788312 148.9387207 89.76831055 C166.36629277 99.69219786 184.5154562 106.55301097 204.51416016 108.86767578 C207.13916016 109.22705078 207.13916016 109.22705078 209.13916016 110.22705078 C209.13916016 111.54705078 209.13916016 112.86705078 209.13916016 114.22705078 C208.16978516 114.42298828 207.20041016 114.61892578 206.20166016 114.82080078 C186.97805426 118.99184636 170.734291 127.69865948 159.14306641 144.05908203 C149.01874637 160.06458603 145.30643168 178.74399914 148.83056641 197.42236328 C151.78307458 209.45476061 156.95591332 219.92790664 165.13916016 229.22705078 C165.78369141 229.97728516 166.42822266 230.72751953 167.09228516 231.50048828 C178.35582718 243.72351721 193.2056975 249.04035825 209.13916016 252.22705078 C209.13916016 290.17705078 209.13916016 328.12705078 209.13916016 367.22705078 C155.99737048 367.38826292 155.99737048 367.38826292 133.70361328 367.42236328 C118.31920021 367.44608433 102.93487487 367.47394879 87.55053711 367.52880859 C76.34547838 367.56874616 65.14049092 367.59450018 53.93536299 367.60340476 C48.00534501 367.60860775 42.07553087 367.62078926 36.14557838 367.64997101 C30.55679978 367.67724933 24.96830778 367.6854707 19.37946892 367.67948151 C17.33535323 367.6805762 15.29122733 367.6884556 13.24716949 367.70387268 C-14.42105268 367.90220911 -14.42105268 367.90220911 -24.98583984 357.51220703 C-30.43419581 350.87202319 -32.99644451 343.70605712 -32.97436523 335.16137695 C-32.9742897 334.18073776 -32.97421417 333.20009857 -32.97413635 332.18974304 C-32.96897507 331.14373428 -32.96381378 330.09772552 -32.95849609 329.02001953 C-32.95708115 327.93948807 -32.9556662 326.8589566 -32.95420837 325.74568176 C-32.94862064 322.30194302 -32.93607034 318.8582698 -32.92333984 315.41455078 C-32.91832326 313.0766611 -32.91376063 310.73877039 -32.90966797 308.40087891 C-32.89865522 302.67624725 -32.88192925 296.9516537 -32.86083984 291.22705078 C-32.03994873 291.21770508 -31.21905762 291.20835937 -30.37329102 291.19873047 C-27.27335492 291.15423065 -24.17434032 291.09240502 -21.07495117 291.01953125 C-19.09560749 290.97804157 -17.11588953 290.95582567 -15.13623047 290.93408203 C-5.09746469 290.67993606 4.96386139 289.38299564 12.57275391 282.19580078 C20.21726608 272.5877356 21.23810513 262.63090792 21.70166016 250.85205078 C21.76643555 249.31871094 21.76643555 249.31871094 21.83251953 247.75439453 C21.93803808 245.2453979 22.04015229 242.73631136 22.13916016 240.22705078 C23.31091797 239.87513672 24.48267578 239.52322266 25.68994141 239.16064453 C42.95720664 233.80843627 56.33586662 226.10975427 65.4543457 209.87988281 C73.27452247 194.86370302 73.82860093 179.21053817 68.83691406 163.20947266 C65.93802759 154.97330815 61.61076593 148.06728038 55.13916016 142.22705078 C55.13916016 141.56705078 55.13916016 140.90705078 55.13916016 140.22705078 C54.56166016 139.95505859 53.98416016 139.68306641 53.38916016 139.40283203 C51.14259428 138.22884535 49.19667353 136.89144011 47.13916016 135.41455078 C39.44111709 130.22756625 31.10258772 127.34971393 22.13916016 125.22705078 C22.10943115 124.29807983 22.10943115 124.29807983 22.07910156 123.3503418 C21.98280784 120.49637689 21.87355919 117.64304221 21.76416016 114.78955078 C21.73322266 113.81566406 21.70228516 112.84177734 21.67041016 111.83837891 C21.23926182 100.25016975 21.23926182 100.25016975 16.57666016 89.85205078 C14.964219 87.52669054 14.05107918 85.96280786 13.13916016 83.22705078 C11.30526193 82.10657136 11.30526193 82.10657136 9.13916016 81.22705078 C8.47916016 80.88544922 7.81916016 80.54384766 7.13916016 80.19189453 C6.47916016 79.85287109 5.81916016 79.51384766 5.13916016 79.16455078 C4.47916016 78.82294922 3.81916016 78.48134766 3.13916016 78.12939453 C-1.13610935 76.20051317 -5.14596028 76.04910229 -9.81396484 75.91064453 C-10.80429718 75.87947289 -10.80429718 75.87947289 -11.81463623 75.84767151 C-13.91326999 75.78254931 -16.01202357 75.72346577 -18.11083984 75.66455078 C-19.53793532 75.62132999 -20.9650189 75.57771458 -22.39208984 75.53369141 C-25.88154706 75.42690667 -29.37113737 75.32553512 -32.86083984 75.22705078 C-32.9373493 68.43187735 -32.98963144 61.63681637 -33.02563477 54.84130859 C-33.04065526 52.53299814 -33.06107764 50.2247159 -33.0871582 47.91650391 C-33.12383869 44.58505254 -33.14063415 41.25398083 -33.15380859 37.92236328 C-33.16929245 36.90216095 -33.18477631 35.88195862 -33.20072937 34.83084106 C-33.20311335 24.51751786 -31.12019184 15.82897894 -23.86083984 8.22705078 C-16.40256376 1.52800041 -9.85179047 -0.0775475 0 0 Z " fill="#000000" transform="translate(39.86083984375,134.77294921875)"/>
<path d="M0 0 C0 61.71 0 123.42 0 187 C-28 187 -28 187 -36 183 C-41.71995386 176.60582096 -40.55570652 168.26123113 -40.50170898 160.15405273 C-40.50549519 158.53715546 -40.51099771 156.92026143 -40.51808167 155.30337524 C-40.53201325 150.9252887 -40.52088325 146.54759615 -40.50437045 142.16953158 C-40.49049412 137.582587 -40.49698288 132.99566468 -40.50050354 128.40870667 C-40.50320335 120.70770944 -40.48974887 113.00686829 -40.46655273 105.3059082 C-40.43993499 96.4075001 -40.43819975 87.50935274 -40.4499411 78.61091846 C-40.46072613 70.04282008 -40.45452673 61.47481584 -40.44038582 52.90672493 C-40.43463326 49.26371086 -40.43470293 45.62076585 -40.43945122 41.97775078 C-40.44422918 37.687331 -40.43408549 33.39719619 -40.41249657 29.1068306 C-40.40694002 27.53388619 -40.406453 25.96091434 -40.41144943 24.38796806 C-40.41742204 22.23781801 -40.40486069 20.0885335 -40.38768005 17.9384613 C-40.38525016 16.73631705 -40.38282026 15.5341728 -40.38031673 14.29559994 C-39.80248707 9.28846971 -38.16711768 6.05325254 -34.4375 2.6875 C-23.39458648 -4.95759398 -21.68985819 0 0 0 Z " fill="#000000" transform="translate(505,224)"/>
<path d="M0 0 C31 0 31 0 38 6 C40.10804497 10.21608995 40.25283997 12.09198847 40.26069641 16.7046814 C40.26643473 17.71413706 40.26643473 17.71413706 40.27228898 18.74398577 C40.28260356 20.99786045 40.27862982 23.25147965 40.2746582 25.50537109 C40.27900557 27.12182348 40.2841888 28.73827381 40.29014587 30.35472107 C40.30354536 34.7452661 40.30411342 39.1357251 40.30158257 43.5262866 C40.30051337 47.19178798 40.305395 50.85727192 40.310188 54.52276957 C40.32128675 63.17111744 40.3217187 71.81942189 40.31567383 80.46777344 C40.30963457 89.38825576 40.32194298 98.30858033 40.3432439 107.22903574 C40.36086115 114.88860498 40.36686101 122.54812401 40.36360615 130.20771277 C40.36179314 134.78203661 40.36443116 139.35624795 40.37832069 143.93055344 C40.39089622 148.23321523 40.38895759 152.53563124 40.37590981 156.83828926 C40.37354376 158.41607941 40.37627974 159.99388684 40.38453293 161.57165718 C40.39500028 163.72850658 40.3869007 165.88453131 40.3742218 168.04135132 C40.37438954 169.24739202 40.37455729 170.45343273 40.37473011 171.69602013 C39.88343051 176.02778839 38.44417557 179.37867222 35.53515625 182.64453125 C24.92657313 191.0582351 15.07507614 187 0 187 C0 125.29 0 63.58 0 0 Z " fill="#000000" transform="translate(7,225)"/>
<path d="M0 0 C2.13061401 1.36405931 4.15408583 2.75359426 6.1875 4.25 C6.78393311 4.6823999 7.38036621 5.1147998 7.99487305 5.56030273 C28.58009851 20.58009851 28.58009851 20.58009851 32 24 C35.28781838 48.77551375 35.28781838 48.77551375 30.71533203 57.43212891 C27.27340481 61.26747748 22.94917942 63.44858691 18.37451172 65.69726562 C14.92503049 67.58976324 12.03795213 70.05289833 8.99560547 72.53100586 C0.1036193 79.63500115 0.1036193 79.63500115 -4.94921875 80.51171875 C-7.5 80.0625 -7.5 80.0625 -9.86157227 79.06201172 C-12.52393378 78.16109592 -14.40446899 77.808352 -17.14941406 77.59155273 C-28.71999573 76.43627144 -28.71999573 76.43627144 -32.62744141 72.26101685 C-36.12952241 66.93597649 -38.14235164 60.97493296 -40.25 55 C-40.94959008 53.21893055 -41.65527699 51.44024326 -42.3671875 49.6640625 C-43.02620541 47.96561634 -43.68004638 46.26515031 -44.328125 44.5625 C-44.63196106 43.76448975 -44.93579712 42.96647949 -45.24884033 42.14428711 C-47.21593809 36.53971196 -47.21593809 36.53971196 -46.15936279 33.89892578 C-37.18489486 19.19960246 -22.73247719 8.71093256 -7.7890625 0.64453125 C-7.1595166 0.30397705 -6.5299707 -0.03657715 -5.88134766 -0.38745117 C-3.50254392 -1.16196695 -2.32642874 -0.85913759 0 0 Z " fill="#000000" transform="translate(217,20)"/>
<path d="M0 0 C9.60917326 3.60157194 17.82716416 9.24397331 25.51171875 15.94140625 C26.77822266 17.00875 26.77822266 17.00875 28.0703125 18.09765625 C32.37861581 21.82233857 36.4862662 25.73203894 40.32421875 29.94140625 C41.35482422 31.05515625 41.35482422 31.05515625 42.40625 32.19140625 C43.83509565 35.74584914 42.96614268 37.69266438 41.59692383 41.16259766 C40.31251997 44.45148062 39.32430032 47.79643026 38.2890625 51.171875 C31.54796385 71.34667726 31.54796385 71.34667726 24.421875 75.92773438 C16.58830341 79.01001598 5.7867467 81.77207467 -2.48828125 78.94140625 C-4.59517047 77.57572182 -6.59978651 76.18332094 -8.61328125 74.69140625 C-9.50406372 74.0428064 -9.50406372 74.0428064 -10.4128418 73.38110352 C-11.72039585 72.42901405 -13.02621966 71.47454511 -14.33056641 70.51806641 C-16.67074043 68.80808181 -19.0216365 67.11365778 -21.375 65.421875 C-28.23184743 60.49034926 -28.23184743 60.49034926 -30.9453125 58.53125 C-31.6050708 58.05550537 -32.2648291 57.57976074 -32.94458008 57.08959961 C-34.48828125 55.94140625 -34.48828125 55.94140625 -35.48828125 54.94140625 C-35.90026638 50.65491345 -36.01642301 46.3637598 -36.11303711 42.06079102 C-36.15452671 40.61801835 -36.21573545 39.17566437 -36.29760742 37.73461914 C-36.96110244 25.85874235 -36.96110244 25.85874235 -33.52099609 21.38037109 C-30.94796633 19.30018658 -28.34046283 17.61414279 -25.48828125 15.94140625 C-23.98406498 14.86592566 -22.48860707 13.77804645 -21.00390625 12.67578125 C-19.58434406 11.67769199 -18.16249445 10.68284749 -16.73828125 9.69140625 C-16.02285156 9.18867188 -15.30742187 8.6859375 -14.5703125 8.16796875 C-13.18356854 7.19597574 -11.79247742 6.23014627 -10.39648438 5.27148438 C-9.18397639 4.42632784 -7.98742031 3.55743234 -6.81445312 2.65820312 C-4.44474408 0.89378375 -3.00115092 -0.07067074 0 0 Z " fill="#000000" transform="translate(298.48828125,20.05859375)"/>
<path d="M0 0 C14.47361902 1.4473619 23.93623689 6.61941471 34 17 C34.57234375 17.56332031 35.1446875 18.12664062 35.734375 18.70703125 C45.3006257 28.84035351 48.86502595 42.41261231 49 56 C47.88801107 72.27386975 41.97731191 84.89403332 30.16015625 96.1875 C21.27295 103.64439638 11.39804893 107.57524388 0 109 C0 73.03 0 37.06 0 0 Z " fill="#000000" transform="translate(263,263)"/>
<path d="M0 0 C0 35.97 0 71.94 0 109 C-15.57616178 107.05297978 -27.79944207 99.8557428 -38 88 C-47.2003023 75.73293026 -50.24113438 60.49218026 -48.375 45.4375 C-46.42595492 34.73711346 -42.22192981 26.08674073 -35 18 C-34.42765625 17.32324219 -33.8553125 16.64648438 -33.265625 15.94921875 C-24.76490792 6.59479718 -12.70113622 0 0 0 Z " fill="#000000" transform="translate(249,263)"/>
<path d="M0 0 C2.41015625 1.96875 2.41015625 1.96875 5.0625 4.5 C8.85434395 8.0604772 12.70691734 11.47092054 16.75 14.75 C17.64847656 15.48476562 18.54695313 16.21953125 19.47265625 16.9765625 C21.03973155 18.23119156 22.62773087 19.46069988 24.24609375 20.6484375 C24.88675781 21.13570312 25.52742188 21.62296875 26.1875 22.125 C26.73792969 22.51945312 27.28835938 22.91390625 27.85546875 23.3203125 C29.77899121 26.14322941 29.26117394 28.67346872 29 32 C26.50818065 43.49492542 21.47591809 58.52408191 13 67 C10.50598236 67.1170075 8.13549372 67.11375627 5.6484375 67.01171875 C4.54914413 66.97773735 4.54914413 66.97773735 3.42764282 66.94306946 C1.87233523 66.89304977 0.3171804 66.83807499 -1.23779297 66.77856445 C-3.5944973 66.68866358 -5.95129406 66.61343005 -8.30859375 66.54101562 C-9.82294604 66.49045567 -11.33727036 66.43904928 -12.8515625 66.38671875 C-13.89577866 66.35223885 -13.89577866 66.35223885 -14.96109009 66.31706238 C-28.14664563 65.80031223 -28.14664563 65.80031223 -31.13671875 62.99609375 C-31.64847656 62.15175781 -32.16023438 61.30742187 -32.6875 60.4375 C-33.24824219 59.53128906 -33.80898438 58.62507813 -34.38671875 57.69140625 C-34.91910156 56.80324219 -35.45148438 55.91507813 -36 55 C-36.52207031 54.28714844 -37.04414063 53.57429688 -37.58203125 52.83984375 C-38.04996094 52.19144531 -38.51789063 51.54304688 -39 50.875 C-39.4125 50.31554687 -39.825 49.75609375 -40.25 49.1796875 C-42.17029592 43.59882747 -39.49225514 36.69033693 -37.75 31.2890625 C-37.53182617 30.59485199 -37.31365234 29.90064148 -37.08886719 29.18539429 C-36.39899322 26.99650636 -35.69946824 24.81083826 -35 22.625 C-34.53065563 21.13690608 -34.06190044 19.6486262 -33.59375 18.16015625 C-33.14636683 16.74462294 -32.69846877 15.32925224 -32.25 13.9140625 C-32.03956055 13.24952057 -31.82912109 12.58497864 -31.61230469 11.90029907 C-30.85120269 9.52430775 -30.11765649 7.23531299 -29 5 C-24.98232091 3.64013798 -20.81465302 2.78211859 -16.6875 1.8125 C-14.9559668 1.38420898 -14.9559668 1.38420898 -13.18945312 0.94726562 C-12.07892578 0.68236328 -10.96839844 0.41746094 -9.82421875 0.14453125 C-8.80416748 -0.09934326 -7.78411621 -0.34321777 -6.7331543 -0.59448242 C-4.02237707 -0.99667992 -2.52931165 -0.98331397 0 0 Z " fill="#000000" transform="translate(331,109)"/>
<path d="M0 0 C2.42575518 0.38712495 4.72676916 0.47229345 7.18017578 0.51611328 C12.33042009 0.86093696 17.10886398 1.36644135 21.42626953 4.38720703 C25.65600822 10.62339372 27.1251091 18.25663289 28.75341797 25.51123047 C29.59348433 29.10193501 30.76000617 32.47499209 31.98876953 35.94970703 C33.72367119 41.02483428 33.90143107 45.37400571 31.48120117 50.31762695 C30.28458846 52.33623657 29.00697656 54.26710506 27.67626953 56.19970703 C27.24572266 56.86679688 26.81517578 57.53388672 26.37158203 58.22119141 C25.94103516 58.85992187 25.51048828 59.49865234 25.06689453 60.15673828 C24.68049805 60.73012939 24.29410156 61.30352051 23.89599609 61.89428711 C19.78945208 66.06563539 14.10203296 65.7927361 8.62548828 66.02001953 C7.78911331 66.06158173 6.95273834 66.10314392 6.09101868 66.14596558 C3.43225394 66.27621602 0.7731108 66.39437746 -1.88623047 66.51220703 C-3.69421152 66.59864824 -5.50215501 66.68587906 -7.31005859 66.77392578 C-11.73089967 66.98750148 -16.15211951 67.19024062 -20.57373047 67.38720703 C-24.20512704 61.53499972 -27.57022829 55.73091118 -30.26123047 49.38720703 C-30.55521729 48.70223145 -30.8492041 48.01725586 -31.15209961 47.31152344 C-37.57518679 32.09187225 -37.57518679 32.09187225 -36.57373047 25.38720703 C-34.5018094 23.17312496 -32.63107128 21.46923982 -30.26123047 19.63720703 C-28.97347889 18.59192325 -27.68703712 17.54502394 -26.40185547 16.49658203 C-25.75667969 15.97773437 -25.11150391 15.45888672 -24.44677734 14.92431641 C-20.81999927 11.94801365 -17.42024052 8.72758613 -13.97607422 5.54345703 C-13.18330078 4.83189453 -12.39052734 4.12033203 -11.57373047 3.38720703 C-10.83251953 2.61376953 -10.09130859 1.84033203 -9.32763672 1.04345703 C-5.79768974 -1.07951817 -3.95242378 -0.66678232 0 0 Z " fill="#000000" transform="translate(188.57373046875,109.61279296875)"/>
<path d="M0 0 C0.42772705 0.57999756 0.8554541 1.15999512 1.29614258 1.75756836 C2.48655101 3.47240211 3.65240354 5.20202558 4.8125 6.9375 C5.23208984 7.53240234 5.65167969 8.12730469 6.08398438 8.74023438 C7.93575338 11.53161599 9.05296307 13.33887685 8.78100586 16.73364258 C7.87569866 20.51985857 6.63013989 24.10824545 5.234375 27.734375 C4.95909973 28.45361145 4.68382446 29.1728479 4.40020752 29.91387939 C3.81846112 31.42449907 3.23333867 32.9338225 2.64501953 34.44189453 C1.74978255 36.75056076 0.88077434 39.06809218 0.01171875 41.38671875 C-0.5583027 42.85738931 -1.12986477 44.32746387 -1.703125 45.796875 C-1.95854065 46.48956482 -2.2139563 47.18225464 -2.47711182 47.89593506 C-3.72688139 51.01795615 -4.52467094 52.72939371 -7.49414062 54.41992188 C-19.28755148 57.1499632 -31.19264661 55.7681804 -43 54 C-44.18388137 51.16328479 -45.36655026 48.32607211 -46.54785156 45.48828125 C-47.4858484 43.23507029 -48.42520539 40.98242485 -49.36621094 38.73046875 C-50.71437097 35.4917517 -52.0459583 32.24660333 -53.375 29 C-53.83777344 27.89527344 -54.30054688 26.79054687 -54.77734375 25.65234375 C-55.42509766 24.06099609 -55.42509766 24.06099609 -56.0859375 22.4375 C-56.4782959 21.48746094 -56.8706543 20.53742188 -57.27490234 19.55859375 C-58.61156181 14.84203107 -56.23542881 10.88233326 -54.09291077 6.69631958 C-48.71051365 -2.83288998 -48.71051365 -2.83288998 -43.71075439 -4.98571777 C-38.32828594 -6.23159474 -32.94208351 -6.19507441 -27.44555664 -5.984375 C-24.53934776 -5.87412167 -21.6519809 -5.88368318 -18.74414062 -5.9140625 C-16.89318405 -5.90528143 -15.04224437 -5.88989463 -13.19140625 -5.8671875 C-11.89608727 -5.85871292 -11.89608727 -5.85871292 -10.57460022 -5.85006714 C-5.15615026 -5.61805265 -2.91912585 -4.91935142 0 0 Z " fill="#000000" transform="translate(280,167)"/>
<path d="M0 0 C4.08468329 2.25973375 7.78496433 4.96353639 11.5390625 7.73046875 C12.33876465 8.31401123 13.1384668 8.89755371 13.96240234 9.4987793 C19.3131848 13.41676413 24.62011353 17.38665013 29.7890625 21.54296875 C29.20108609 26.53198055 28.14526172 30.96771214 26.5390625 35.75390625 C26.32088867 36.40751129 26.10271484 37.06111633 25.87792969 37.73452759 C25.42017053 39.10180885 24.95952334 40.46812636 24.49609375 41.83349609 C23.78464992 43.93097794 23.08306349 46.03157054 22.3828125 48.1328125 C18.93678753 58.39524372 18.93678753 58.39524372 17.7890625 59.54296875 C14.9774287 59.63158867 12.19047995 59.6581923 9.37890625 59.640625 C8.53687149 59.63921005 7.69483673 59.6377951 6.82728577 59.63633728 C4.12700915 59.63072138 1.42681422 59.61816623 -1.2734375 59.60546875 C-3.09960818 59.6004558 -4.92578016 59.59589254 -6.75195312 59.59179688 C-11.23831292 59.58074679 -15.72461134 59.56347154 -20.2109375 59.54296875 C-23.2423261 52.19008657 -25.9665824 44.76080433 -28.5234375 37.23046875 C-28.89533203 36.17279297 -29.26722656 35.11511719 -29.65039062 34.02539062 C-29.99650391 33.00380859 -30.34261719 31.98222656 -30.69921875 30.9296875 C-31.01415283 30.01405029 -31.32908691 29.09841309 -31.65356445 28.1550293 C-32.29430532 25.15227566 -32.23440505 23.43603791 -31.2109375 20.54296875 C-29.51196289 18.80126953 -29.51196289 18.80126953 -27.30859375 17.23828125 C-26.10323975 16.36719727 -26.10323975 16.36719727 -24.87353516 15.47851562 C-24.01550293 14.88103516 -23.1574707 14.28355469 -22.2734375 13.66796875 C-21.4076709 13.05244141 -20.5419043 12.43691406 -19.64990234 11.80273438 C-17.94064327 10.58894529 -16.22783776 9.3801322 -14.51123047 8.17675781 C-12.6061091 6.82364041 -10.74485457 5.4400771 -8.90234375 4.00390625 C-8.05542969 3.35679688 -7.20851562 2.7096875 -6.3359375 2.04296875 C-5.63726562 1.49640625 -4.93859375 0.94984375 -4.21875 0.38671875 C-2.2109375 -0.45703125 -2.2109375 -0.45703125 0 0 Z " fill="#000000" transform="translate(257.2109375,88.45703125)"/>
<path d="M0 0 C0 28.38 0 56.76 0 86 C-12.01634457 83.32970121 -21.24469993 78.66119465 -28.79296875 68.61328125 C-36.05304894 57.1943403 -37.86581454 44.93927621 -35.37890625 31.69140625 C-32.11215908 20.52639036 -24.99758634 10.99543729 -15 5 C-4.79643766 0 -4.79643766 0 0 0 Z " fill="#000000" transform="translate(450,275)"/>
<path d="M0 0 C13.15078356 3.28769589 22.47483504 8.52093481 30 20 C36.18216404 30.58645084 37.45857187 41.86860468 35.53515625 53.91015625 C32.39118303 65.64889649 25.15661482 74.95428014 14.9375 81.3125 C9.91904573 84.16822132 5.84817902 86 0 86 C0 57.62 0 29.24 0 0 Z " fill="#000000" transform="translate(62,274)"/>
<path d="M0 0 C-1.65532627 4.96597881 -6.19002721 7.17643379 -10.3125 10.1875 C-11.18068359 10.84169922 -12.04886719 11.49589844 -12.94335938 12.16992188 C-13.78318359 12.78802734 -14.62300781 13.40613281 -15.48828125 14.04296875 C-16.25696533 14.61039795 -17.02564941 15.17782715 -17.81762695 15.76245117 C-20 17 -20 17 -24 17 C-26.05883789 15.83837891 -26.05883789 15.83837891 -28.22265625 14.2265625 C-29.00833984 13.6490625 -29.79402344 13.0715625 -30.60351562 12.4765625 C-31.41498047 11.86554687 -32.22644531 11.25453125 -33.0625 10.625 C-34.67823483 9.42948395 -36.2941143 8.23416336 -37.91015625 7.0390625 C-38.97955444 6.23782959 -38.97955444 6.23782959 -40.07055664 5.42041016 C-41.68114948 4.23473014 -43.33593137 3.10937909 -45 2 C-45 1.34 -45 0.68 -45 0 C-29.71340452 -2.71331013 -15.28659548 -2.71331013 0 0 Z " fill="#000000" transform="translate(278,13)"/>
<path d="M0 0 C19.34042553 -0.19148936 19.34042553 -0.19148936 29 1 C27.44417828 5.19778312 24.36174904 7.51889847 20.9375 10.1875 C20.32914307 10.66364746 19.72078613 11.13979492 19.09399414 11.63037109 C11.19803314 17.60929582 1.03324729 24.70917286 -9 26 C-8.37658609 22.4617797 -7.44678155 19.26706972 -6.15234375 15.91796875 C-5.79462891 14.98662109 -5.43691406 14.05527344 -5.06835938 13.09570312 C-4.69517578 12.13599609 -4.32199219 11.17628906 -3.9375 10.1875 C-3.56044922 9.20845703 -3.18339844 8.22941406 -2.79492188 7.22070312 C-1.86684405 4.8123999 -0.93509884 2.40558386 0 0 Z " fill="#000000" transform="translate(302,190)"/>
<path d="M0 0 C6.20591921 7.91105313 8.17152682 18.68711357 9.8125 28.4375 C9.93625 29.16984863 10.06 29.90219727 10.1875 30.65673828 C10.93254633 35.48529589 11.10462576 40.1156292 11 45 C6.0462395 41.92289417 1.95692168 38.3367058 -2.25 34.3125 C-3.48244477 33.139895 -4.71673371 31.96922431 -5.953125 30.80078125 C-6.49098633 30.28684814 -7.02884766 29.77291504 -7.58300781 29.2434082 C-8.99909456 27.89470727 -8.99909456 27.89470727 -11 27 C-10.38333953 23.25577927 -9.30434425 20.13978312 -7.71484375 16.69921875 C-7.26689453 15.72275391 -6.81894531 14.74628906 -6.35742188 13.74023438 C-5.88884766 12.73283203 -5.42027344 11.72542969 -4.9375 10.6875 C-4.46505859 9.66076172 -3.99261719 8.63402344 -3.50585938 7.57617188 C-2.34197675 5.048548 -1.17322145 2.52329928 0 0 Z " fill="#000000" transform="translate(351,72)"/>
<path d="M0 0 C2.83619207 1.41809603 3.02129466 3.09544025 4.1640625 6.0234375 C4.56367188 7.044375 4.96328125 8.0653125 5.375 9.1171875 C5.99375 10.72980469 5.99375 10.72980469 6.625 12.375 C7.04523438 13.44234375 7.46546875 14.5096875 7.8984375 15.609375 C11 23.60496144 11 23.60496144 11 27 C9.6015625 28.5078125 9.6015625 28.5078125 7.625 30.125 C3.35902155 33.68378416 -0.72523199 37.40484596 -4.80078125 41.1796875 C-7 43 -7 43 -10 44 C-10.72502535 29.58005132 -8.20390462 12.30585692 0 0 Z " fill="#000000" transform="translate(161,72)"/>
<path d="M0 0 C2.87443461 5.3066485 5.12870097 10.73498833 7.25 16.375 C7.52021973 17.08914062 7.79043945 17.80328125 8.06884766 18.5390625 C10 23.74510149 10 23.74510149 10 26 C5.51699242 25.38752079 1.87284628 23.62432776 -2.0625 21.5 C-2.71790771 21.14832764 -3.37331543 20.79665527 -4.04858398 20.43432617 C-10.50904139 16.87320363 -16.25219638 12.6264963 -22 8 C-22.68449219 7.46890625 -23.36898437 6.9378125 -24.07421875 6.390625 C-25.4293361 5.31663922 -26.72538642 4.16839578 -28 3 C-28 2.34 -28 1.68 -28 1 C-18.64072209 0.27507668 -9.39355936 -0.14256667 0 0 Z " fill="#000000" transform="translate(209,189)"/>
</svg>
