<?xml version="1.0" encoding="UTF-8"?>
<svg version="1.1" xmlns="http://www.w3.org/2000/svg" width="512" height="512">
<path d="M0 0 C2.01017763 2.24888622 3.44385324 4.21070972 5 6.75 C5.95799894 8.22632363 6.91771623 9.70153324 7.87890625 11.17578125 C8.38309082 11.96162598 8.88727539 12.7474707 9.40673828 13.55712891 C12.14575397 17.75672912 15.04772389 21.8408734 17.9375 25.9375 C19.1291442 27.63655189 20.32055116 29.33577019 21.51171875 31.03515625 C25.7300571 37.04153855 29.95120952 43.04580641 34.19921875 49.03125 C36.01884272 51.59807462 37.81156582 54.18030501 39.58203125 56.78125 C51.88415897 74.72075015 67.20098903 86.92864976 88.625 92.3125 C109.36727622 95.77514903 129.55443835 91.68416491 147 80 C157.26228488 72.5960961 164.28160746 62.66705429 171.375 52.34667969 C174.02386711 48.52142268 176.76542588 44.76420108 179.5 41 C180.579879 39.50553478 181.6593054 38.01074241 182.73828125 36.515625 C184.94301203 33.46281883 187.14886583 30.41082821 189.35546875 27.359375 C190.18328857 26.21239136 190.18328857 26.21239136 191.02783203 25.04223633 C192.12414191 23.52807724 193.22529901 22.01741457 194.33154297 20.51049805 C196.90926477 16.98479697 199.37712468 13.45208577 201.65234375 9.72265625 C202.28233276 8.73023926 202.28233276 8.73023926 202.92504883 7.71777344 C203.69777131 6.49085051 204.43902791 5.2432441 205.1394043 3.97363281 C206.1953125 2.33203125 206.1953125 2.33203125 209 0 C216.27865322 -0.26318452 223.74396784 1.59256536 230.828125 3.109375 C231.82019958 3.31806213 232.81227417 3.52674927 233.83441162 3.74176025 C235.91909933 4.18236835 238.00310023 4.6262377 240.08642578 5.07324219 C243.22595257 5.74485573 246.36854723 6.40037256 249.51171875 7.0546875 C280.79448004 13.65797174 307.56271187 25.15712364 325.75 52.8125 C335.65249298 68.51146958 341.19625711 86.39341451 341.11352539 104.96459961 C341.11367142 105.83368958 341.11381744 106.70277954 341.1139679 107.59820557 C341.11327536 110.44961101 341.105514 113.30094982 341.09765625 116.15234375 C341.09578973 118.13774073 341.09436693 120.12313816 341.09336853 122.10853577 C341.08956181 127.31826055 341.07974735 132.52795719 341.06866455 137.7376709 C341.05660588 143.99695504 341.0520394 150.25624863 341.04621124 156.51554108 C341.03653455 166.01038026 341.01736508 175.50515775 341 185 C320.54 185 300.08 185 279 185 C277.85072802 162.01456031 277.85072802 162.01456031 277.68359375 154.078125 C277.6524221 152.75551666 277.6524221 152.75551666 277.62062073 151.40618896 C277.5570972 148.68750936 277.49719687 145.968766 277.4375 143.25 C277.39412527 141.36587976 277.35050641 139.48176512 277.30664062 137.59765625 C277.20163087 133.0651634 277.09986125 128.53260908 277 124 C274.69 124 272.38 124 270 124 C270 148.75 270 173.5 270 199 C251.19 199 232.38 199 213 199 C211.02 194.545 211.02 194.545 209 190 C203.87459638 180.84749353 195.98915526 175.46456342 186.11328125 172.41796875 C176.05112446 170.42785641 166.48686728 172.09211294 157.75 177.35546875 C149.32659123 183.30609654 145.94724955 189.13187613 142 199 C75.67 199 9.34 199 -59 199 C-59 174.58 -59 150.16 -59 125 C-60.65 124.67 -62.3 124.34 -64 124 C-66.54163022 126.54163022 -66.26343428 127.47135469 -66.30297852 130.99707031 C-66.31962051 132.03865295 -66.33626251 133.0802356 -66.35340881 134.15338135 C-66.36182297 135.28354675 -66.37023712 136.41371216 -66.37890625 137.578125 C-66.39590073 138.73745544 -66.4128952 139.89678589 -66.43040466 141.09124756 C-66.48368412 144.81077572 -66.52386803 148.53029309 -66.5625 152.25 C-66.60649129 155.95536467 -66.65331715 159.6606445 -66.70530701 163.36590576 C-66.73713335 165.6741502 -66.76406346 167.98246857 -66.78553772 170.29083252 C-66.79902756 171.3450238 -66.8125174 172.39921509 -66.82641602 173.48535156 C-66.84068382 174.8686264 -66.84068382 174.8686264 -66.85523987 176.27984619 C-67.01103528 179.20736141 -67.51803842 182.10823054 -68 185 C-88.46 185 -108.92 185 -130 185 C-130.16043524 163.84037481 -130.16043524 163.84037481 -130.1953125 154.6953125 C-130.21905789 148.49888091 -130.2468888 142.3026897 -130.30175781 136.10644531 C-130.34579737 131.10079091 -130.3692572 126.09539492 -130.37950897 121.08956146 C-130.38679767 119.19694714 -130.40102392 117.30434404 -130.42292023 115.41184235 C-130.7626164 84.78309882 -122.22284151 58.50325427 -101 36 C-83.73563204 19.76480449 -64.09519516 12.80021751 -41.5 7.8125 C-39.61040354 7.3846699 -37.72107851 6.95563917 -35.83203125 6.52539062 C-31.35852152 5.51000237 -26.88076535 4.51543166 -22.40039062 3.53082275 C-20.18151534 3.04014033 -17.96547909 2.53847081 -15.75 2.03271484 C-14.5228125 1.75766113 -13.295625 1.48260742 -12.03125 1.19921875 C-10.99548828 0.96420654 -9.95972656 0.72919434 -8.89257812 0.48706055 C-5.81879531 -0.03051176 -3.10843598 -0.27933328 0 0 Z " fill="#000000" transform="translate(152,39)"/>
<path d="M0 0 C109.23 0 218.46 0 331 0 C331.60815323 26.75874192 332.19684747 53.50566787 332.53222656 80.26739502 C332.56254471 82.6284816 332.59476871 84.98953424 332.62768555 87.35058594 C332.97746761 112.57130325 333 137.77333178 333 163 C222.45 163 111.9 163 -2 163 C-2 108.66257684 -0.80491054 54.33146119 0 0 Z M18 47 C15.85420839 48.55901182 15.85420839 48.55901182 14 51 C13.53662797 55.40203429 13.51961093 57.2794164 16 61 C18.5 61.41666667 18.5 61.41666667 21 61 C23.24324836 59.18806994 23.24324836 59.18806994 23.1953125 56.6171875 C23.17210937 55.71226562 23.14890625 54.80734375 23.125 53.875 C23.10695313 52.96492188 23.08890625 52.05484375 23.0703125 51.1171875 C23.04710937 50.41851562 23.02390625 49.71984375 23 49 C20.525 48.01 20.525 48.01 18 47 Z M18 74 C15.2712001 76.22150035 14.10335022 77.39752487 13.49879456 80.92175293 C13.49862839 82.05552368 13.49846222 83.18929443 13.49829102 84.35742188 C13.48891006 85.64555786 13.47952911 86.93369385 13.46986389 88.26086426 C13.48034222 89.6634996 13.49171123 91.06612853 13.50390625 92.46875 C13.50375123 93.91076734 13.50226176 95.35278511 13.49949646 96.7947998 C13.49811303 99.81439676 13.51066022 102.8335184 13.53344727 105.85302734 C13.5618324 109.72022205 13.55909416 113.58662718 13.54635715 117.45388031 C13.53939635 120.43079349 13.54719371 123.40752473 13.55961418 126.38441467 C13.56412483 127.81013796 13.56446885 129.2358808 13.56054878 130.66160583 C13.55763299 132.65529605 13.57631649 134.64898243 13.59594727 136.64257812 C13.60135025 137.77634888 13.60675323 138.91011963 13.61231995 140.07824707 C14.0367177 143.27672317 14.84171873 144.65451687 17 147 C20.29075996 146.62095792 20.29075996 146.62095792 23 145 C23.09425595 142.85256451 23.11742648 140.70198974 23.11352539 138.55249023 C23.11367142 137.87934784 23.11381744 137.20620544 23.1139679 136.51266479 C23.11326878 134.27794216 23.10547652 132.0433019 23.09765625 129.80859375 C23.09579206 128.26302638 23.09436816 126.71745843 23.09336853 125.17189026 C23.0895434 121.09642923 23.07971317 117.02100363 23.06866455 112.94555664 C23.05845032 108.78988118 23.05387089 104.63420001 23.04882812 100.47851562 C23.03809089 92.31899413 23.02101454 84.15950147 23 76 C20.525 75.01 20.525 75.01 18 74 Z " fill="#000000" transform="translate(92,316)"/>
<path d="M0 0 C2.18664483 1.80135501 3.64324745 3.70598029 5.26953125 6.03125 C6.31367188 7.50464844 6.31367188 7.50464844 7.37890625 9.0078125 C9.04613734 11.41970189 10.67097621 13.85703411 12.28515625 16.3046875 C25.24598768 35.84077 41.31708853 49.29193531 64.70703125 54.40625 C83.2587548 57.93176204 103.46185255 53.69790567 119.12890625 43.1953125 C128.22907147 36.56260502 135.17711516 29.15564168 141.70703125 20.03125 C144.03055531 16.81565867 146.3640632 13.60770024 148.70703125 10.40625 C149.31933594 9.55772461 149.93164062 8.70919922 150.5625 7.83496094 C151.16707031 7.0205957 151.77164063 6.20623047 152.39453125 5.3671875 C152.93464844 4.63032715 153.47476563 3.8934668 154.03125 3.13427734 C155.95241234 1.15321862 156.99033211 0.70245398 159.70703125 0.40625 C162.94140625 0.96484375 162.94140625 0.96484375 166.45703125 1.84375 C168.21273437 2.27494141 168.21273437 2.27494141 170.00390625 2.71484375 C170.8959375 2.94300781 171.78796875 3.17117187 172.70703125 3.40625 C171.14368725 8.22502798 168.3958781 11.71168654 165.33203125 15.65625 C161.03071692 21.28949618 156.83444963 26.9749975 152.76953125 32.78125 C146.49970269 41.71812595 140.15577959 50.59744609 133.70703125 59.40625 C133.23990723 60.04675293 132.7727832 60.68725586 132.29150391 61.34716797 C121.04213261 76.69315471 107.94843999 87.06375013 88.87890625 90.98828125 C71.05810423 93.33658891 53.77398295 90.60981855 38.70703125 80.40625 C29.91575174 73.65143144 23.46262986 65.63880454 17.19482422 56.56054688 C15.60951308 54.26504548 14.00563488 51.98335078 12.3984375 49.703125 C8.81818603 44.61558464 5.26177135 39.51163306 1.70703125 34.40625 C-0.79090379 30.82147148 -3.29139138 27.23848738 -5.79296875 23.65625 C-6.63758667 22.44255737 -6.63758667 22.44255737 -7.49926758 21.2043457 C-10.6166905 16.73992836 -13.8115834 12.3806636 -17.20898438 8.12402344 C-18.29296875 6.40625 -18.29296875 6.40625 -18.29296875 3.40625 C-15.71343078 2.68038001 -13.13107397 1.97529206 -10.54296875 1.28125 C-9.81335938 1.07371094 -9.08375 0.86617187 -8.33203125 0.65234375 C-2.95511164 -0.76520778 -2.95511164 -0.76520778 0 0 Z " fill="#000000" transform="translate(179.29296875,32.59375)"/>
<path d="M0 0 C108.9 0 217.8 0 330 0 C330 4.62 330 9.24 330 14 C220.77 14 111.54 14 -1 14 C-1 2 -1 2 0 0 Z " fill="#000000" transform="translate(93,293)"/>
<path d="M0 0 C26.99883025 -0.1634983 53.99758633 -0.28694993 80.99681187 -0.3626852 C93.532955 -0.39878463 106.06879059 -0.44800393 118.60473633 -0.52807617 C129.53066825 -0.59783134 140.45637746 -0.6430041 151.38252586 -0.65861946 C157.16834356 -0.66774794 162.9535241 -0.68921118 168.73913765 -0.7401104 C174.18524434 -0.78763447 179.63045163 -0.80227851 185.07674599 -0.79175377 C187.07503905 -0.79367907 189.07336227 -0.80759753 191.07147598 -0.83443832 C193.80266365 -0.86932599 196.53046633 -0.86087959 199.26173401 -0.84178162 C200.44512504 -0.87236645 200.44512504 -0.87236645 201.65242296 -0.90356916 C206.3380222 -0.81513824 208.53987623 0.08348081 211.87548733 3.4459219 C212.68422823 4.37935316 212.68422823 4.37935316 213.50930732 5.33164161 C215.46031399 7.51517574 217.53403326 8.61865089 220.1875 9.8125 C221.00605469 10.19019531 221.82460938 10.56789063 222.66796875 10.95703125 C223.43753906 11.30121094 224.20710937 11.64539063 225 12 C226.98 12.99 226.98 12.99 229 14 C153.43 14 77.86 14 0 14 C0 9.38 0 4.76 0 0 Z " fill="#000000" transform="translate(93,270)"/>
<path d="M0 0 C65.67 0 131.34 0 199 0 C199.99 4.62 200.98 9.24 202 14 C135.34 14 68.68 14 0 14 C0 9.38 0 4.76 0 0 Z " fill="#000000" transform="translate(93,247)"/>
<path d="M0 0 C5.85272721 4.42094416 9.06466677 10.39840954 10.703125 17.48828125 C11.81411718 25.84436076 10.19985859 33.02048527 5.4453125 40 C1.33831219 45.06187788 -4.37503697 49.63328176 -10.9296875 50.75 C-20.20808115 51.5169133 -28.35975506 50.98100637 -35.9609375 45.20703125 C-42.64860268 39.01527344 -45.58120622 31.97721917 -46.1796875 23 C-46.0603719 15.09534164 -42.8578391 7.83848432 -37.3984375 2.15625 C-26.56606728 -7.88831148 -12.13878608 -7.86318127 0 0 Z M-31.7421875 11.625 C-35.23315725 16.61209964 -36.55777855 20.52853943 -35.5234375 26.6640625 C-33.96110585 32.15278028 -31.18997687 36.40983597 -26.1796875 39.25 C-20.59995847 41.61875289 -15.44626153 41.58885801 -9.7421875 39.6875 C-4.68131659 36.20112226 -1.07970261 32.38456222 0.6328125 26.375 C1.45826698 21.32768978 0.60452593 17.1848735 -1.9296875 12.75 C-5.41491081 8.82912377 -9.74227618 5.25668646 -15.04296875 4.4140625 C-22.26126828 4.28585114 -26.89159525 6.25116602 -31.7421875 11.625 Z " fill="#000000" transform="translate(346.9296875,224.25)"/>
<path d="M0 0 C20.46 0 40.92 0 62 0 C62 6.93 62 13.86 62 21 C41.54 21 21.08 21 0 21 C0 14.07 0 7.14 0 0 Z " fill="#000000" transform="translate(431,233)"/>
<path d="M0 0 C20.46 0 40.92 0 62 0 C62 6.93 62 13.86 62 21 C41.54 21 21.08 21 0 21 C0 14.07 0 7.14 0 0 Z " fill="#000000" transform="translate(22,233)"/>
<path d="M0 0 C1.42630218 0.01120231 2.85262758 0.01973761 4.27896118 0.02572632 C8.01797159 0.04854451 11.75556489 0.10740264 15.49401855 0.1739502 C19.3148278 0.23552698 23.13586794 0.26277386 26.95703125 0.29296875 C34.44342665 0.3571573 41.92836481 0.46261985 49.4140625 0.5859375 C49.9090625 7.5159375 49.9090625 7.5159375 50.4140625 14.5859375 C22.0340625 14.5859375 -6.3459375 14.5859375 -35.5859375 14.5859375 C-34.2659375 13.9259375 -32.9459375 13.2659375 -31.5859375 12.5859375 C-29.78694866 11.68372557 -27.99576614 10.76584822 -26.2109375 9.8359375 C-24.83808594 9.13210938 -24.83808594 9.13210938 -23.4375 8.4140625 C-20.38442452 6.69669117 -20.38442452 6.69669117 -18.31933594 3.50830078 C-13.44158174 -1.40716585 -6.44053205 -0.14863982 0 0 Z " fill="#000000" transform="translate(372.5859375,269.4140625)"/>
<path d="M0 0 C18.15 0 36.3 0 55 0 C55 4.62 55 9.24 55 14 C35.86 14 16.72 14 -3 14 C-2.01 9.38 -1.02 4.76 0 0 Z " fill="#000000" transform="translate(367,247)"/>
<path d="M0 0 C3.2856634 2.42853382 4.70758271 4.12274814 6 8 C6 11.62603173 5.20839025 13.16064111 3 16 C-0.7373856 18.4915904 -2.57331583 18.45793285 -7 18 C-9.875 16.4375 -9.875 16.4375 -12 14 C-13.14888518 10.05070721 -13.43129396 7.97041141 -11.75 4.1875 C-8.25986481 -0.17516899 -5.39027785 -0.65055077 0 0 Z " fill="#000000" transform="translate(333,238)"/>
</svg>
