<?xml version="1.0" encoding="UTF-8"?>
<svg version="1.1" xmlns="http://www.w3.org/2000/svg" width="512" height="512">
<path d="M0 0 C11.68789307 -0.52178094 23.52433016 3.63148348 32.6875 10.83984375 C41.46182801 18.95195832 46.38393189 29.40991535 48 41.15234375 C48.09278742 43.98134636 48.13935827 46.78519558 48.13371277 49.61367798 C48.13597833 50.45154952 48.13824388 51.28942107 48.14057809 52.15268266 C48.14689477 54.95287678 48.14609022 57.75302221 48.14526367 60.55322266 C48.14825669 62.56416893 48.15165955 64.57511463 48.15544128 66.58605957 C48.16427273 72.04501666 48.16661909 77.50395807 48.16725707 82.96292162 C48.16796826 86.37656218 48.17010393 89.79019877 48.17275429 93.20383835 C48.18200612 105.12206017 48.18608953 117.0402708 48.18530273 128.95849609 C48.18470255 140.05217 48.19524314 151.14579519 48.2110464 162.23945677 C48.22414413 171.77514519 48.22948567 181.31081772 48.22884732 190.84651506 C48.22859292 196.53656564 48.23141221 202.22657295 48.24202538 207.91661453 C48.25174349 213.2731416 48.25176014 218.62958437 48.24450874 223.9861145 C48.24346739 225.94517516 48.24579894 227.90424116 48.2518692 229.86329269 C48.30668942 248.79115063 47.21568595 264.56231469 33.41796875 278.9609375 C22.87436978 288.51660636 11.22968045 290.9503888 -2.58984375 290.4921875 C-14.34084119 289.78647468 -24.08208035 284.45525817 -32.1015625 275.9140625 C-40.6181103 265.42240042 -43.29282585 255.57649995 -43.31884766 242.25024414 C-43.32889328 241.06903992 -43.3389389 239.88783569 -43.34928894 238.6708374 C-43.3747883 235.45027187 -43.3916996 232.22980173 -43.40471697 229.009166 C-43.42040452 225.63654841 -43.44717664 222.26401876 -43.4727478 218.89146423 C-43.51943643 212.51331487 -43.55622832 206.13514878 -43.58942068 199.75691646 C-43.62771238 192.4920253 -43.67710395 185.22722267 -43.72740483 177.96240628 C-43.83057708 163.0257843 -43.91988503 148.08910854 -44 133.15234375 C-44.58918213 133.3124292 -45.17836426 133.47251465 -45.78540039 133.63745117 C-57.00809438 136.24671825 -69.51576263 134.11727561 -79.55859375 128.796875 C-90.80142134 121.72507957 -97.64086475 112.45142743 -101.2734375 99.72265625 C-103.83846496 87.11816646 -102.06257161 75.33487583 -95.46875 64.3515625 C-88.92367605 54.55135868 -79.9750699 48.54528275 -70.45849609 41.88916016 C-66.42560787 39.04010685 -62.46545868 36.09414175 -58.5 33.15234375 C-50.00586258 26.8752846 -41.46571502 20.66524569 -32.88134766 14.51220703 C-31.26675988 13.34516136 -29.66875053 12.15523968 -28.07421875 10.9609375 C-19.51553257 4.64088694 -10.63961421 0.81043936 0 0 Z " fill="#000000" transform="translate(254,47.84765625)"/>
<path d="M0 0 C1.42707502 2.85415003 1.25891265 4.81800106 1 8 C-0.00595971 10.49039883 -1.01943115 12.67167711 -2.3125 15 C-2.66570312 15.64718994 -3.01890625 16.29437988 -3.3828125 16.96118164 C-15.43456402 38.28729434 -34.11338776 55.07469288 -57.9375 61.8125 C-82.89395322 68.17697416 -107.06513828 61.67373214 -129.23046875 49.80859375 C-132.36343894 47.76266258 -134.68205366 45.95358062 -137 43 C-137.84418174 37.52233951 -136.33409461 33.63759541 -133.6875 28.9375 C-133.33429688 28.29482178 -132.98109375 27.65214355 -132.6171875 26.98999023 C-120.97251505 6.52427833 -103.12304089 -10.1776415 -80.1809082 -16.85791016 C-53.02298393 -24.13069857 -22.00533615 -17.94720923 0 0 Z " fill="#000000" transform="translate(247,412)"/>
<path d="M0 0 C0.66515625 0.56203125 1.3303125 1.1240625 2.015625 1.703125 C10.94712174 9.96684628 22.80894913 25.36960755 24.4921875 37.56640625 C23.84660184 42.07013476 22.55613133 43.21451854 19 46 C16.44996532 47.65956878 13.82658492 49.1027975 11.125 50.5 C10.37903564 50.88873291 9.63307129 51.27746582 8.86450195 51.67797852 C-11.72460267 62.12185361 -35.63883039 65.79845083 -58 59 C-81.39105124 50.96760127 -98.90307812 34.46951911 -110.6875 13 C-111.02692627 12.38922607 -111.36635254 11.77845215 -111.71606445 11.14916992 C-113.71633061 7.29450692 -114.77978234 4.31518648 -114 0 C-103.12595051 -13.63313667 -80.6749578 -19.52665546 -64.25 -21.75 C-39.78618518 -23.61353209 -18.60532216 -15.72715078 0 0 Z " fill="#000000" transform="translate(378,414)"/>
<path d="M0 0 C14.81880358 10.15880245 25.01547694 33.13091307 28.33984375 50.27734375 C31.95591457 72.97147328 27.75001768 94.69717894 14.57421875 113.578125 C7.80554544 122.83633385 0.05227934 130.70378053 -9.125 137.5625 C-9.98593262 138.22608521 -9.98593262 138.22608521 -10.86425781 138.90307617 C-13.81136724 141.02062575 -16.0236766 142.003729 -19.62109375 142.5703125 C-25.99391187 141.49466921 -29.31670456 135.96291042 -33 131 C-47.92205061 109.21484598 -55.4511567 85.73252618 -50.9375 59.375 C-47.79414273 45.69043068 -41.52006013 34.05470168 -33 23 C-32.42507813 22.25234375 -31.85015625 21.5046875 -31.2578125 20.734375 C-26.54345699 15.00496687 -20.81748719 10.55829083 -15 6 C-13.89205078 5.05833984 -13.89205078 5.05833984 -12.76171875 4.09765625 C-8.54622584 0.61885142 -5.64429531 -1.41107383 0 0 Z " fill="#000000" transform="translate(483,36)"/>
<path d="M0 0 C19.49131004 10.10153568 35.03493899 31.70756262 42 52 C48.24607797 73.69565718 45.68848339 96.1646414 35 116 C34.46375 117.01578125 33.9275 118.0315625 33.375 119.078125 C28.80835843 127.32345007 23.17709502 135.76933509 16 142 C11.92896779 142.93294488 10.07850058 142.62430814 6.44921875 140.5234375 C-14.34960987 125.75538663 -30.74318603 106.26848335 -35.60083008 80.69702148 C-39.31956482 55.5711116 -32.63965868 31.86863148 -17.64868164 11.63549805 C-8.07015058 -0.8581578 -8.07015058 -0.8581578 0 0 Z " fill="#000000" transform="translate(36,36)"/>
<path d="M0 0 C1.98308137 3.96616275 1.17508553 7.47184464 -0.1796875 11.55859375 C-0.72825003 12.85866685 -1.2943422 14.15144113 -1.875 15.4375 C-2.18598633 16.13198242 -2.49697266 16.82646484 -2.81738281 17.54199219 C-12.83179968 39.08225203 -29.2146684 57.11815505 -51.61328125 65.81640625 C-52.73089844 66.20699219 -53.84851563 66.59757812 -55 67 C-55.94230469 67.33902344 -56.88460937 67.67804688 -57.85546875 68.02734375 C-82.58885723 75.27045482 -108.32247271 68.80086588 -130.39453125 57.21875 C-133 55 -133 55 -134.08984375 51.79296875 C-133.97549648 46.96552548 -132.61950145 43.62495715 -130.5625 39.3125 C-130.19632568 38.52230469 -129.83015137 37.73210937 -129.45288086 36.91796875 C-124.22344679 25.91947585 -117.40757657 16.80720544 -109 8 C-108.44957031 7.37480469 -107.89914062 6.74960937 -107.33203125 6.10546875 C-99.34621115 -2.62963818 -88.05325474 -8.18055072 -77 -12 C-76.07703125 -12.3196875 -75.1540625 -12.639375 -74.203125 -12.96875 C-50.19133391 -19.82926174 -20.21128039 -14.76512699 0 0 Z " fill="#000000" transform="translate(508,334)"/>
<path d="M0 0 C2.25166061 1.66670964 4.31498599 3.4226732 6.3828125 5.3125 C7.25164062 6.08980469 8.12046875 6.86710937 9.015625 7.66796875 C20.66982067 18.65667414 32.16894942 34.44406016 35.37890625 50.44140625 C35.3828125 54.3125 35.3828125 54.3125 33.32421875 57.12109375 C14.76870671 70.94531985 -10.8435273 73.56591943 -33.14941406 71.02392578 C-52.88765146 67.79773296 -71.76306152 55.33811249 -83.6171875 39.3125 C-101.13358752 13.94121208 -101.13358752 13.94121208 -99.6171875 3.3125 C-77.84663674 -24.18082421 -25.38210623 -16.36577596 0 0 Z " fill="#000000" transform="translate(102.6171875,332.6875)"/>
<path d="M0 0 C3.71939398 -0.12853197 6.57477018 0.23860292 9.80859375 2.125 C12.6693467 5.98781726 13.20083687 8.81699326 13.2421875 13.578125 C13.25354736 14.82932129 13.26490723 16.08051758 13.27661133 17.36962891 C13.26866236 18.70476769 13.258448 20.03989471 13.24609375 21.375 C13.24203018 22.38660187 13.24203018 22.38660187 13.23788452 23.41864014 C13.17230296 34.14561293 12.28579082 43.95648619 8.80859375 54.125 C8.45796875 55.17816406 8.10734375 56.23132813 7.74609375 57.31640625 C0.08621371 77.71615621 -14.30131167 92.36554336 -33.703125 101.83984375 C-47.00245246 107.82380957 -59.92427954 110.29839247 -74.44140625 110.375 C-75.93027344 110.4059375 -75.93027344 110.4059375 -77.44921875 110.4375 C-78.40054687 110.44265625 -79.351875 110.4478125 -80.33203125 110.453125 C-81.19344727 110.4624707 -82.05486328 110.47181641 -82.94238281 110.48144531 C-85.69596555 110.04503294 -86.52921954 109.32620459 -88.19140625 107.125 C-94.5060405 88.18109724 -88.81989765 63.03700998 -80.37890625 45.8125 C-77.26902649 39.69524002 -73.69216553 34.32230536 -69.19140625 29.125 C-68.55976563 28.30257812 -67.928125 27.48015625 -67.27734375 26.6328125 C-54.04681834 10.72645048 -31.61825466 2.98670949 -11.67578125 0.7265625 C-7.78545068 0.39792727 -3.89666684 0.22226977 0 0 Z " fill="#000000" transform="translate(499.19140625,191.875)"/>
<path d="M0 0 C0.88244385 0.04930664 1.7648877 0.09861328 2.67407227 0.14941406 C21.95411073 1.47131565 39.0016733 7.77731984 54.75 18.875 C55.42675781 19.34421875 56.10351562 19.8134375 56.80078125 20.296875 C73.2375334 33.00691724 81.87127365 53.89770864 84.75 73.875 C88.03997242 99.87774564 88.03997242 99.87774564 81.75 108.875 C79.41810173 111.20689827 73.74682519 110.11603807 70.625 110.125 C45.2961777 110.11479993 23.14881176 101.64190651 4.6875 84.25 C-3.68211073 75.67244863 -9.40630806 65.17353931 -13.25 53.875 C-13.64316406 52.72773438 -14.03632813 51.58046875 -14.44140625 50.3984375 C-17.35670194 40.77239111 -17.64735623 31.11855926 -17.6875 21.125 C-17.6936734 20.45784973 -17.6998468 19.79069946 -17.70620728 19.10333252 C-17.71766837 17.17828271 -17.70107125 15.25312959 -17.68359375 13.328125 C-17.67384521 12.20567383 -17.66409668 11.08322266 -17.65405273 9.92675781 C-17.20308767 6.52067728 -16.27541349 4.62547023 -14.25 1.875 C-9.82826334 -0.89267961 -5.01642802 -0.29246965 0 0 Z " fill="#000000" transform="translate(17.25,192.125)"/>
</svg>
