<?xml version="1.0" encoding="UTF-8"?>
<svg version="1.1" xmlns="http://www.w3.org/2000/svg" width="200" height="200">
<path d="M0 0 C11.95706607 7.35503377 18.14985464 18.02736603 21.4609375 31.3984375 C23.63301009 40.99596757 23.86068592 50.82769724 23.9921875 60.62890625 C24.01059692 61.70417068 24.02900635 62.77943512 24.04797363 63.88728333 C24.12580999 68.43705391 24.19429916 72.98695162 24.26318359 77.53686523 C24.3151796 80.8801132 24.37229664 84.22324723 24.4296875 87.56640625 C24.44326294 88.58429733 24.45683838 89.60218842 24.4708252 90.65092468 C24.56607642 96.14878524 24.93088287 101.45536398 25.7109375 106.8984375 C26.02840965 110.9767336 26.19113402 114.58590034 24.7734375 118.4609375 C21.85202587 120.49707288 19.35995844 120.33785253 15.8671875 120.33203125 C13.06334374 119.76821484 12.31161515 119.28757952 10.7109375 116.8984375 C10.05378976 114.24063996 9.55250637 111.71910337 9.1484375 109.0234375 C9.02549316 108.27054443 8.90254883 107.51765137 8.77587891 106.74194336 C8.40705158 104.46268692 8.0558141 102.18143049 7.7109375 99.8984375 C7.51371094 98.59777344 7.31648438 97.29710937 7.11328125 95.95703125 C6.78075999 93.75253844 6.45552731 91.54692225 6.140625 89.33984375 C5.8311076 86.90093794 5.8311076 86.90093794 4.7109375 84.8984375 C4.54489014 85.64939697 4.37884277 86.40035645 4.20776367 87.17407227 C3.44503371 90.60463743 2.6718339 94.03276196 1.8984375 97.4609375 C1.63740234 98.64236328 1.37636719 99.82378906 1.10742188 101.04101562 C-2.25611413 115.86548913 -2.25611413 115.86548913 -6.2890625 119.8984375 C-13.2164368 120.56882856 -13.2164368 120.56882856 -16.7890625 118.3359375 C-19.07190445 114.62631934 -18.73653262 111.06018463 -17.86279297 106.83911133 C-17.27064251 104.57623228 -16.63050575 102.3317163 -15.9765625 100.0859375 C-11.09123045 82.31182809 -8.36064554 64.05111116 -9.7265625 45.5859375 C-9.77401935 42.52497044 -9.72480695 41.39476106 -7.6875 39.07421875 C-6.28109282 37.94435231 -4.8502769 36.84429776 -3.3984375 35.7734375 C1.37475123 31.53060307 3.13333074 25.10056326 4.7109375 19.0859375 C4.7109375 15.20937665 3.81493749 13.12958034 1.7109375 9.8984375 C-2.03953732 7.39812096 -3.84762516 7.36240196 -8.2890625 7.8984375 C-12.75866085 11.12070608 -14.39262161 14.97931172 -16.19921875 20.0078125 C-17.2890625 21.8984375 -17.2890625 21.8984375 -19.41015625 22.6640625 C-20.03019531 22.74140625 -20.65023437 22.81875 -21.2890625 22.8984375 C-24.10603338 18.09831912 -23.90225314 13.3149548 -23.2890625 7.8984375 C-21.17199261 3.04681901 -18.24228011 0.61991912 -13.4921875 -1.46484375 C-8.61834874 -2.87341772 -4.53138725 -2.18063345 0 0 Z " fill="#000000" transform="translate(110.2890625,55.1015625)"/>
<path d="M0 0 C2.4375 1.4375 2.4375 1.4375 4 4 C5.31839912 10.10692421 3.63554723 15.22925247 0.66796875 20.57421875 C-4.69967105 28.38055204 -11.80394214 32.88212001 -21 35 C-22.66650464 35.02323933 -24.33354308 35.02644065 -26 35 C-26.04608398 35.63522079 -26.09216797 36.27044159 -26.13964844 36.9249115 C-26.75963771 44.59801071 -27.92690531 52.11125011 -29.25 59.69140625 C-29.46817383 60.95846909 -29.68634766 62.22553192 -29.91113281 63.5309906 C-30.3689892 66.18789416 -30.82982228 68.84425776 -31.29296875 71.50024414 C-31.88660911 74.90556805 -32.47342049 78.31202715 -33.0581665 81.71888828 C-33.61885295 84.98112724 -34.18457783 88.24248468 -34.75 91.50390625 C-34.96043945 92.72775528 -35.17087891 93.95160431 -35.38769531 95.21253967 C-35.58459961 96.33808762 -35.78150391 97.46363556 -35.984375 98.62329102 C-36.15678711 99.61603531 -36.32919922 100.6087796 -36.50683594 101.63160706 C-37 104 -37 104 -38 106 C-39.99954746 106.04254356 -42.00041636 106.04080783 -44 106 C-45 105 -45 105 -45.21069336 101.84155273 C-45.12171213 95.31990595 -43.77190601 88.9369896 -42.62890625 82.53515625 C-42.38401173 81.13337144 -42.13979673 79.73146777 -41.89622498 78.32945251 C-41.25626616 74.65437996 -40.60875558 70.98068249 -39.95910645 67.30731201 C-38.921351 61.43356507 -37.89404095 55.55799144 -36.86887932 49.68203545 C-36.5121868 47.64494688 -36.15157486 45.60858248 -35.79042053 43.57228088 C-34.86705007 38.30925299 -33.96174522 33.0940681 -33.47241211 27.77124023 C-33 24 -33 24 -30.9375 21.0625 C-27.85952246 18.90136683 -25.71808377 18.19036314 -22.0625 17.65234375 C-17.83213283 16.31432989 -15.45954911 13.79150332 -13.26953125 10.01953125 C-12.78871094 8.96121094 -12.30789062 7.90289062 -11.8125 6.8125 C-8.82759379 0.29926139 -7.35574135 -0.63411563 0 0 Z " fill="#000000" transform="translate(109,64)"/>
<path d="M0 0 C3.76459939 3.85641889 4.86137704 6.55560651 4.9375 11.9375 C4.80543978 17.44000933 4.05956255 20.34109837 0.5625 24.625 C-4.53688844 28.41569583 -9.20292241 29.32890392 -15.4375 28.625 C-20.70344344 26.76643173 -23.23145768 24.02185804 -26.4375 19.625 C-27.97127179 15.02368463 -28.34224832 10.27720508 -26.75390625 5.62109375 C-24.09412765 0.51122864 -20.43204088 -2.24193048 -15.125 -4.25 C-9.58751202 -4.50755758 -4.40111086 -3.4949998 0 0 Z " fill="#000000" transform="translate(95.4375,28.375)"/>
</svg>
