<?xml version="1.0" standalone="no"?>
<!DOCTYPE svg PUBLIC "-//W3C//DTD SVG 20010904//EN"
 "http://www.w3.org/TR/2001/REC-SVG-20010904/DTD/svg10.dtd">
<svg version="1.0" xmlns="http://www.w3.org/2000/svg"
 width="512.000000pt" height="512.000000pt" viewBox="0 0 512.000000 512.000000"
 preserveAspectRatio="xMidYMid meet">

<g transform="translate(0.000000,512.000000) scale(0.100000,-0.100000)"
fill="#000000" stroke="none">
<path d="M345 4496 c-84 -21 -147 -57 -211 -121 -65 -65 -105 -136 -123 -223
-6 -31 -11 -156 -11 -297 l0 -245 395 0 c251 0 413 -4 447 -11 171 -36 310
-175 347 -347 15 -73 15 -1310 0 -1384 -27 -127 -119 -248 -235 -306 -97 -49
-133 -52 -559 -52 l-395 0 0 -245 c0 -144 5 -266 11 -297 37 -172 175 -310
347 -347 37 -8 345 -11 1052 -11 l1000 0 0 608 -1 607 -82 26 c-239 77 -418
267 -494 524 -24 83 -24 287 0 370 44 150 106 253 211 353 89 84 174 135 283
171 l82 26 1 608 0 607 -1007 -1 c-771 -1 -1020 -4 -1058 -13z"/>
<path d="M2710 3903 l0 -608 89 -28 c233 -75 412 -266 488 -522 25 -85 24
-286 -1 -375 -71 -246 -257 -443 -488 -517 l-88 -28 0 -607 0 -608 1000 0
c697 0 1015 3 1052 11 128 27 241 113 301 226 51 99 57 144 57 418 l0 245
-395 0 c-256 0 -413 4 -447 11 -171 37 -310 176 -347 347 -15 73 -15 1310 0
1384 36 171 175 310 347 347 34 7 191 11 447 11 l395 0 0 245 c0 144 -5 266
-11 297 -37 172 -176 311 -347 347 -37 8 -356 11 -1052 11 l-1000 0 0 -607z"/>
<path d="M0 2560 l0 -750 390 0 c372 0 393 1 430 20 26 13 47 34 60 60 19 38
20 58 20 670 0 612 -1 632 -20 670 -13 26 -34 47 -60 60 -37 19 -58 20 -430
20 l-390 0 0 -750z"/>
<path d="M4298 3289 c-23 -12 -46 -35 -58 -59 -19 -38 -20 -58 -20 -670 0
-600 1 -633 19 -668 11 -22 35 -46 59 -60 39 -22 44 -22 431 -22 l391 0 0 750
0 750 -392 0 c-372 -1 -395 -2 -430 -21z"/>
<path d="M2455 2996 c-84 -21 -147 -57 -211 -121 -177 -176 -177 -453 1 -630
258 -259 695 -118 757 244 24 141 -22 281 -127 387 -112 113 -269 158 -420
120z"/>
</g>
</svg>
